<?xml version="1.0" encoding="UTF-8"?>
<svg xmlns="http://www.w3.org/2000/svg" width="40px" height="40px" viewBox="0 0 40 40" version="1.1">
   <g id="surface1">
      <path style=" stroke:none;fill-rule:nonzero;fill:rgb(0%,0%,0%);fill-opacity:1;"
            d="M 18.40625 1.03125 C 16.5 1.75 15.375 2.75 14.5 4.5625 C 13.8125 5.96875 13.6875 6.53125 13.84375 7.78125 L 14.03125 9.3125 L 13.125 8.96875 C 12.34375 8.6875 11.84375 8.8125 9.15625 9.96875 C 7.46875 10.71875 5.46875 11.625 4.6875 12 L 3.28125 12.65625 L 3.1875 23.9375 C 3.125 33.5625 3.1875 35.28125 3.5625 35.625 C 3.9375 35.90625 4.78125 35.65625 7.9375 34.25 C 10.0625 33.28125 12 32.5 12.25 32.5 C 12.5 32.5 14.4375 33.28125 16.53125 34.25 L 20.34375 36 L 24.1875 34.25 C 26.28125 33.28125 28.21875 32.5 28.46875 32.5 C 28.71875 32.5 30.65625 33.28125 32.78125 34.25 C 35.8125 35.625 36.6875 35.90625 37.0625 35.59375 C 37.65625 35.09375 37.71875 13.0625 37.125 12.59375 C 36.90625 12.40625 34.9375 11.46875 32.75 10.46875 C 29.75 9.125 28.59375 8.75 27.90625 8.875 L 27.03125 9.0625 L 27.03125 7.0625 C 27.03125 5.3125 26.90625 4.875 26.09375 3.6875 C 24.375 1.28125 20.9375 0.09375 18.40625 1.03125 Z M 22.78125 3.125 C 25.84375 4.65625 26.09375 7.6875 23.5625 11.875 C 22.71875 13.28125 21.65625 14.875 21.21875 15.40625 L 20.40625 16.375 L 18.78125 13.9375 C 15.8125 9.53125 15.09375 7.25 16.0625 5.375 C 17.40625 2.78125 20.28125 1.8125 22.78125 3.125 Z M 11.5625 15.78125 L 11.5625 20.625 L 10.78125 20.625 C 9.84375 20.625 8.125 21.4375 8.125 21.875 C 8.125 22.46875 8.75 22.46875 10.125 21.875 L 11.5625 21.28125 L 11.5625 30.625 L 8.90625 31.84375 C 4.59375 33.84375 5 34.09375 5 29.5625 C 5 27.40625 5.125 25.625 5.28125 25.625 C 5.8125 25.625 7.25 23.40625 7.0625 22.90625 C 6.875 22.46875 6.71875 22.53125 5.90625 23.3125 L 4.96875 24.1875 L 5.15625 13.6875 L 8.125 12.3125 C 9.75 11.59375 11.1875 10.96875 11.34375 10.96875 C 11.46875 10.9375 11.5625 13.125 11.5625 15.78125 Z M 14.1875 11.375 C 14.78125 11.625 15.53125 12.3125 15.96875 13 C 16.34375 13.6875 17.375 15.15625 18.1875 16.28125 C 19.5625 18.1875 19.6875 18.53125 19.6875 20.15625 L 19.6875 21.90625 L 18.875 21.28125 C 18.21875 20.78125 17.9375 20.71875 17.59375 20.96875 C 17.25 21.28125 17.40625 21.53125 18.4375 22.40625 L 19.6875 23.5 L 19.6875 33.71875 L 16.34375 32.1875 L 12.96875 30.65625 L 12.78125 21.28125 L 14.4375 21.1875 C 15.65625 21.125 16.09375 20.96875 16.09375 20.625 C 16.09375 20.28125 15.6875 20.15625 14.4375 20.15625 L 12.8125 20.15625 L 12.8125 15.53125 C 12.8125 13 12.875 10.9375 12.96875 10.9375 C 13.0625 10.9375 13.625 11.125 14.1875 11.375 Z M 27.8125 20.78125 L 27.8125 30.65625 L 25.71875 31.59375 C 24.53125 32.125 23 32.8125 22.28125 33.15625 L 20.9375 33.71875 L 20.9375 25.84375 L 21.71875 26.5625 C 22.3125 27.125 22.59375 27.21875 22.875 26.9375 C 23.125 26.6875 22.9375 26.25 22.09375 25.1875 C 20.96875 23.84375 20.9375 23.71875 20.9375 21.3125 C 20.9375 18.84375 20.9375 18.84375 22.4375 16.84375 C 23.25 15.75 24.375 14.125 24.9375 13.25 C 25.8125 11.875 26.78125 11.03125 27.59375 10.96875 C 27.71875 10.9375 27.8125 15.375 27.8125 20.78125 Z M 32.96875 12.53125 L 35.625 13.75 L 35.625 16.375 C 35.625 18.875 35.59375 19.03125 34.9375 19.125 C 34.53125 19.1875 34.1875 19.46875 34.125 19.8125 C 34.03125 20.28125 34.15625 20.375 34.8125 20.25 L 35.625 20.09375 L 35.625 26.75 C 35.625 30.4375 35.5625 33.4375 35.5 33.4375 C 35.40625 33.4375 33.96875 32.8125 32.28125 32.0625 L 29.21875 30.65625 L 29.125 29.375 C 29.03125 28.3125 29.1875 27.90625 29.96875 27 C 30.5 26.40625 30.9375 25.71875 30.9375 25.46875 C 30.9375 24.75 30.125 24.90625 29.59375 25.6875 C 29.125 26.34375 29.09375 25.78125 29.09375 18.65625 C 29.0625 9.6875 28.5625 10.46875 32.96875 12.53125 Z M 32.96875 12.53125 "/>
      <path style=" stroke:none;fill-rule:nonzero;fill:rgb(0%,0%,0%);fill-opacity:1;"
            d="M 19.21875 5.0625 C 17.625 5.96875 17.34375 7.84375 18.5625 9.25 C 20.15625 11.125 23.125 9.90625 23.125 7.4375 C 23.125 5.28125 21.03125 4.03125 19.21875 5.0625 Z M 21.6875 6.53125 C 22.78125 7.75 21.1875 9.5625 19.71875 8.78125 C 19 8.375 18.8125 6.9375 19.4375 6.3125 C 20 5.75 21.09375 5.875 21.6875 6.53125 Z M 21.6875 6.53125 "/>
      <path style=" stroke:none;fill-rule:nonzero;fill:rgb(0%,0%,0%);fill-opacity:1;"
            d="M 24.0625 27.8125 C 24.0625 28.28125 24.375 28.4375 25.5 28.625 C 26.40625 28.75 27.0625 28.6875 27.28125 28.46875 C 27.78125 27.96875 27.25 27.59375 25.5625 27.375 C 24.21875 27.21875 24.0625 27.25 24.0625 27.8125 Z M 24.0625 27.8125 "/>
      <path style=" stroke:none;fill-rule:nonzero;fill:rgb(0%,0%,0%);fill-opacity:1;"
            d="M 31.65625 22.09375 C 31.03125 23.25 31 24.0625 31.5625 24.0625 C 31.84375 24.0625 33.4375 21.5625 33.4375 21.15625 C 33.4375 21.03125 33.1875 20.9375 32.875 20.9375 C 32.53125 20.9375 32.03125 21.40625 31.65625 22.09375 Z M 31.65625 22.09375 "/>
   </g>
</svg>
