<?xml version="1.0" encoding="UTF-8"?>
<svg xmlns="http://www.w3.org/2000/svg" width="32px" height="32px" viewBox="0 0 32 32" version="1.1">
   <g id="surface1">
      <path style=" stroke:none;fill-rule:nonzero;fill:rgb(0%,0%,0%);fill-opacity:1;"
            d="M 14.726562 0.824219 C 13.199219 1.398438 12.300781 2.199219 11.601562 3.648438 C 11.050781 4.773438 10.949219 5.226562 11.074219 6.226562 L 11.226562 7.449219 L 10.5 7.175781 C 9.875 6.949219 9.476562 7.050781 7.324219 7.976562 C 5.976562 8.574219 4.375 9.300781 3.75 9.601562 L 2.625 10.125 L 2.550781 19.148438 C 2.5 26.851562 2.550781 28.226562 2.851562 28.5 C 3.148438 28.726562 3.824219 28.523438 6.351562 27.398438 C 8.050781 26.625 9.601562 26 9.800781 26 C 10 26 11.550781 26.625 13.226562 27.398438 L 16.273438 28.800781 L 19.351562 27.398438 C 21.023438 26.625 22.574219 26 22.773438 26 C 22.976562 26 24.523438 26.625 26.226562 27.398438 C 28.648438 28.5 29.351562 28.726562 29.648438 28.476562 C 30.125 28.074219 30.175781 10.449219 29.699219 10.074219 C 29.523438 9.925781 27.949219 9.175781 26.199219 8.375 C 23.800781 7.300781 22.875 7 22.324219 7.101562 L 21.625 7.25 L 21.625 5.648438 C 21.625 4.25 21.523438 3.898438 20.875 2.949219 C 19.5 1.023438 16.75 0.0742188 14.726562 0.824219 Z M 18.226562 2.5 C 20.675781 3.726562 20.875 6.148438 18.851562 9.5 C 18.175781 10.625 17.324219 11.898438 16.976562 12.324219 L 16.324219 13.101562 L 15.023438 11.148438 C 12.648438 7.625 12.074219 5.800781 12.851562 4.300781 C 13.925781 2.226562 16.226562 1.449219 18.226562 2.5 Z M 9.25 12.625 L 9.25 16.5 L 8.625 16.5 C 7.875 16.5 6.5 17.148438 6.5 17.5 C 6.5 17.976562 7 17.976562 8.101562 17.5 L 9.25 17.023438 L 9.25 24.5 L 7.125 25.476562 C 3.675781 27.074219 4 27.273438 4 23.648438 C 4 21.925781 4.101562 20.5 4.226562 20.5 C 4.648438 20.5 5.800781 18.726562 5.648438 18.324219 C 5.5 17.976562 5.375 18.023438 4.726562 18.648438 L 3.976562 19.351562 L 4.125 10.949219 L 6.5 9.851562 C 7.800781 9.273438 8.949219 8.773438 9.074219 8.773438 C 9.175781 8.75 9.25 10.5 9.25 12.625 Z M 11.351562 9.101562 C 11.824219 9.300781 12.425781 9.851562 12.773438 10.398438 C 13.074219 10.949219 13.898438 12.125 14.550781 13.023438 C 15.648438 14.550781 15.75 14.824219 15.75 16.125 L 15.75 17.523438 L 15.101562 17.023438 C 14.574219 16.625 14.351562 16.574219 14.074219 16.773438 C 13.800781 17.023438 13.925781 17.226562 14.75 17.925781 L 15.75 18.800781 L 15.75 26.976562 L 13.074219 25.75 L 10.375 24.523438 L 10.226562 17.023438 L 11.550781 16.949219 C 12.523438 16.898438 12.875 16.773438 12.875 16.5 C 12.875 16.226562 12.550781 16.125 11.550781 16.125 L 10.25 16.125 L 10.25 12.425781 C 10.25 10.398438 10.300781 8.75 10.375 8.75 C 10.449219 8.75 10.898438 8.898438 11.351562 9.101562 Z M 22.25 16.625 L 22.25 24.523438 L 20.574219 25.273438 C 19.625 25.699219 18.398438 26.25 17.824219 26.523438 L 16.75 26.976562 L 16.75 20.675781 L 17.375 21.25 C 17.851562 21.699219 18.074219 21.773438 18.300781 21.550781 C 18.5 21.351562 18.351562 21 17.675781 20.148438 C 16.773438 19.074219 16.75 18.976562 16.75 17.050781 C 16.75 15.074219 16.75 15.074219 17.949219 13.476562 C 18.601562 12.601562 19.5 11.300781 19.949219 10.601562 C 20.648438 9.5 21.425781 8.824219 22.074219 8.773438 C 22.175781 8.75 22.25 12.300781 22.25 16.625 Z M 26.375 10.023438 L 28.5 11 L 28.5 13.101562 C 28.5 15.101562 28.476562 15.226562 27.949219 15.300781 C 27.625 15.351562 27.351562 15.574219 27.300781 15.851562 C 27.226562 16.226562 27.324219 16.300781 27.851562 16.199219 L 28.5 16.074219 L 28.5 21.398438 C 28.5 24.351562 28.449219 26.75 28.398438 26.75 C 28.324219 26.75 27.175781 26.25 25.824219 25.648438 L 23.375 24.523438 L 23.300781 23.5 C 23.226562 22.648438 23.351562 22.324219 23.976562 21.601562 C 24.398438 21.125 24.75 20.574219 24.75 20.375 C 24.75 19.800781 24.101562 19.925781 23.675781 20.550781 C 23.300781 21.074219 23.273438 20.625 23.273438 14.925781 C 23.25 7.75 22.851562 8.375 26.375 10.023438 Z M 26.375 10.023438 "/>
      <path style=" stroke:none;fill-rule:nonzero;fill:rgb(0%,0%,0%);fill-opacity:1;"
            d="M 15.375 4.050781 C 14.101562 4.773438 13.875 6.273438 14.851562 7.398438 C 16.125 8.898438 18.5 7.925781 18.5 5.949219 C 18.5 4.226562 16.824219 3.226562 15.375 4.050781 Z M 17.351562 5.226562 C 18.226562 6.199219 16.949219 7.648438 15.773438 7.023438 C 15.199219 6.699219 15.050781 5.550781 15.550781 5.050781 C 16 4.601562 16.875 4.699219 17.351562 5.226562 Z M 17.351562 5.226562 "/>
      <path style=" stroke:none;fill-rule:nonzero;fill:rgb(0%,0%,0%);fill-opacity:1;"
            d="M 19.25 22.25 C 19.25 22.625 19.5 22.75 20.398438 22.898438 C 21.125 23 21.648438 22.949219 21.824219 22.773438 C 22.226562 22.375 21.800781 22.074219 20.449219 21.898438 C 19.375 21.773438 19.25 21.800781 19.25 22.25 Z M 19.25 22.25 "/>
      <path style=" stroke:none;fill-rule:nonzero;fill:rgb(0%,0%,0%);fill-opacity:1;"
            d="M 25.324219 17.675781 C 24.824219 18.601562 24.800781 19.25 25.25 19.25 C 25.476562 19.25 26.75 17.25 26.75 16.925781 C 26.75 16.824219 26.550781 16.75 26.300781 16.75 C 26.023438 16.75 25.625 17.125 25.324219 17.675781 Z M 25.324219 17.675781 "/>
      <path style=" stroke:none;fill-rule:nonzero;fill:rgb(96.470588%,72.941176%,69.019608%);fill-opacity:1;"
            d="M 15.382812 11.648438 C 14.308594 10.023438 14.085938 9.667969 13.699219 8.976562 C 12.578125 6.96875 12.304688 5.652344 12.769531 4.53125 C 13.027344 3.914062 13.652344 3.144531 14.214844 2.753906 C 14.566406 2.511719 15.082031 2.269531 15.472656 2.164062 C 15.734375 2.09375 15.871094 2.082031 16.382812 2.082031 C 16.929688 2.082031 17.019531 2.089844 17.347656 2.183594 C 18.246094 2.429688 19.171875 3.03125 19.613281 3.648438 C 20.480469 4.863281 20.398438 6.4375 19.359375 8.519531 C 18.96875 9.296875 18.042969 10.804688 17.328125 11.808594 C 17.074219 12.167969 16.359375 13.042969 16.324219 13.042969 C 16.316406 13.042969 15.890625 12.417969 15.382812 11.648438 Z M 16.804688 8.101562 C 17.21875 8.011719 17.5625 7.820312 17.878906 7.503906 C 18.316406 7.058594 18.5 6.605469 18.503906 5.960938 C 18.503906 5.269531 18.320312 4.800781 17.878906 4.359375 C 17.417969 3.898438 16.953125 3.714844 16.328125 3.75 C 15.757812 3.785156 15.273438 4.011719 14.832031 4.453125 C 14.046875 5.238281 14.027344 6.4375 14.792969 7.359375 C 15.316406 7.992188 16.042969 8.261719 16.804688 8.101562 Z M 16.804688 8.101562 "/>
      <path style=" stroke:none;fill-rule:nonzero;fill:rgb(96.470588%,90.980392%,60.392157%);fill-opacity:1;"
            d="M 4.238281 26.445312 C 4.046875 26.257812 4.039062 26.175781 4.023438 24.59375 C 4.003906 22.78125 4.070312 21.148438 4.179688 20.632812 C 4.191406 20.566406 4.238281 20.523438 4.320312 20.492188 C 4.472656 20.4375 4.84375 20.050781 5.097656 19.679688 C 5.34375 19.324219 5.605469 18.804688 5.660156 18.566406 C 5.699219 18.398438 5.695312 18.367188 5.632812 18.261719 C 5.46875 17.976562 5.363281 18.027344 4.589844 18.746094 C 4.269531 19.042969 4.003906 19.285156 4 19.277344 C 3.996094 19.269531 4.027344 17.40625 4.066406 15.136719 C 4.113281 12.496094 4.15625 10.992188 4.179688 10.96875 C 4.3125 10.835938 8.867188 8.8125 9.035156 8.8125 C 9.164062 8.8125 9.199219 9.65625 9.21875 13.195312 L 9.238281 16.464844 L 8.753906 16.484375 C 8.375 16.5 8.191406 16.523438 7.9375 16.597656 C 7.496094 16.726562 6.84375 17.054688 6.648438 17.242188 C 6.519531 17.367188 6.496094 17.410156 6.496094 17.535156 C 6.496094 17.761719 6.613281 17.859375 6.886719 17.859375 C 7.1875 17.859375 7.441406 17.785156 8.210938 17.472656 C 8.582031 17.324219 8.960938 17.167969 9.058594 17.128906 L 9.230469 17.058594 L 9.230469 24.488281 L 8.402344 24.867188 C 7.945312 25.074219 7.121094 25.457031 6.566406 25.714844 C 5.253906 26.332031 4.816406 26.511719 4.554688 26.535156 C 4.359375 26.554688 4.339844 26.546875 4.238281 26.445312 Z M 4.238281 26.445312 "/>
      <path style=" stroke:none;fill-rule:nonzero;fill:rgb(96.470588%,90.980392%,60.392157%);fill-opacity:1;"
            d="M 15.105469 26.660156 C 14.773438 26.503906 13.585938 25.960938 12.460938 25.449219 C 11.335938 24.941406 10.414062 24.519531 10.40625 24.515625 C 10.386719 24.503906 10.25 17.585938 10.261719 17.296875 L 10.269531 17.039062 L 11.054688 16.996094 C 12.566406 16.914062 12.878906 16.824219 12.878906 16.484375 C 12.878906 16.339844 12.78125 16.242188 12.578125 16.183594 C 12.476562 16.152344 12.035156 16.128906 11.332031 16.121094 L 10.242188 16.101562 L 10.265625 12.996094 C 10.289062 10.234375 10.324219 8.835938 10.378906 8.78125 C 10.40625 8.757812 11.027344 8.980469 11.328125 9.121094 C 11.46875 9.1875 11.667969 9.300781 11.765625 9.371094 C 12.0625 9.585938 12.523438 10.066406 12.699219 10.34375 C 13.132812 11.027344 13.796875 12.011719 14.328125 12.753906 C 15.277344 14.085938 15.472656 14.410156 15.621094 14.910156 C 15.695312 15.15625 15.703125 15.28125 15.71875 16.324219 C 15.730469 17.25 15.722656 17.460938 15.6875 17.4375 C 15.660156 17.421875 15.472656 17.28125 15.269531 17.125 C 14.78125 16.753906 14.59375 16.65625 14.371094 16.65625 C 14.226562 16.65625 14.171875 16.675781 14.066406 16.769531 C 13.925781 16.894531 13.902344 17.027344 13.992188 17.195312 C 14.058594 17.324219 14.402344 17.65625 15.132812 18.296875 L 15.726562 18.8125 L 15.726562 22.878906 C 15.726562 25.117188 15.722656 26.945312 15.71875 26.945312 C 15.710938 26.941406 15.4375 26.8125 15.105469 26.660156 Z M 15.105469 26.660156 "/>
      <path style=" stroke:none;fill-rule:nonzero;fill:rgb(96.470588%,90.980392%,60.392157%);fill-opacity:1;"
            d="M 16.785156 23.839844 L 16.785156 20.738281 L 17.183594 21.105469 C 17.847656 21.714844 18.0625 21.808594 18.289062 21.582031 C 18.386719 21.480469 18.398438 21.453125 18.382812 21.289062 C 18.355469 21.03125 18.175781 20.75 17.347656 19.703125 C 17.238281 19.5625 17.089844 19.332031 17.019531 19.191406 C 16.8125 18.78125 16.785156 18.535156 16.785156 17.058594 C 16.785156 15.085938 16.78125 15.101562 17.851562 13.640625 C 18.628906 12.582031 19.019531 12.027344 19.683594 11.039062 C 20.378906 10.003906 20.519531 9.824219 20.9375 9.425781 C 21.28125 9.097656 21.65625 8.871094 21.917969 8.828125 L 22.066406 8.804688 L 22.089844 8.945312 C 22.167969 9.414062 22.195312 11.328125 22.207031 17.625 L 22.226562 24.519531 L 21.285156 24.9375 C 20.765625 25.167969 19.785156 25.609375 19.101562 25.917969 C 18.417969 26.226562 17.617188 26.585938 17.324219 26.710938 L 16.785156 26.941406 Z M 21.496094 22.933594 C 21.734375 22.886719 21.851562 22.808594 21.941406 22.632812 C 22.039062 22.4375 21.964844 22.3125 21.664062 22.171875 C 21.164062 21.933594 19.632812 21.730469 19.382812 21.871094 C 19.226562 21.953125 19.183594 22.238281 19.28125 22.480469 C 19.351562 22.644531 19.597656 22.761719 20.089844 22.859375 C 20.660156 22.972656 21.148438 22.996094 21.496094 22.933594 Z M 21.496094 22.933594 "/>
      <path style=" stroke:none;fill-rule:nonzero;fill:rgb(96.470588%,90.980392%,60.392157%);fill-opacity:1;"
            d="M 28.316406 26.699219 C 28.078125 26.628906 25.902344 25.664062 23.953125 24.769531 L 23.40625 24.515625 L 23.378906 24.300781 C 23.359375 24.179688 23.34375 23.753906 23.339844 23.351562 L 23.335938 22.621094 L 23.449219 22.386719 C 23.515625 22.253906 23.710938 21.96875 23.886719 21.753906 C 24.5 21 24.777344 20.5625 24.773438 20.34375 C 24.773438 20.207031 24.652344 20.027344 24.539062 20 C 24.308594 19.941406 23.96875 20.132812 23.707031 20.46875 C 23.621094 20.582031 23.53125 20.671875 23.507812 20.671875 C 23.332031 20.671875 23.308594 19.996094 23.300781 14.6875 C 23.296875 9.625 23.296875 9.648438 23.480469 9.269531 C 23.585938 9.046875 23.679688 8.984375 23.894531 8.988281 C 24.144531 8.992188 24.351562 9.074219 25.46875 9.613281 C 26.039062 9.886719 26.957031 10.316406 27.503906 10.566406 L 28.496094 11.019531 L 28.496094 12.316406 C 28.492188 13.773438 28.453125 14.796875 28.390625 14.960938 C 28.316406 15.144531 28.210938 15.226562 27.992188 15.273438 C 27.605469 15.351562 27.371094 15.53125 27.292969 15.808594 C 27.210938 16.113281 27.28125 16.253906 27.523438 16.253906 C 27.59375 16.253906 27.824219 16.222656 28.03125 16.183594 C 28.238281 16.140625 28.425781 16.109375 28.453125 16.109375 C 28.488281 16.109375 28.496094 16.640625 28.496094 18.65625 C 28.496094 21.667969 28.433594 26.441406 28.398438 26.601562 C 28.378906 26.679688 28.351562 26.710938 28.316406 26.699219 Z M 25.363281 19.203125 C 25.679688 18.933594 26.628906 17.441406 26.746094 17.027344 C 26.773438 16.929688 26.765625 16.894531 26.710938 16.839844 C 26.621094 16.75 26.339844 16.710938 26.164062 16.761719 C 25.519531 16.953125 24.65625 18.71875 24.996094 19.148438 C 25.035156 19.199219 25.105469 19.25 25.148438 19.257812 C 25.195312 19.265625 25.238281 19.277344 25.25 19.277344 C 25.257812 19.28125 25.3125 19.246094 25.363281 19.203125 Z M 25.363281 19.203125 "/>
      <path style=" stroke:none;fill-rule:nonzero;fill:rgb(0%,0%,0%);fill-opacity:1;"
            d="M 14.46875 27.945312 C 11.445312 26.558594 10.105469 25.996094 9.792969 25.996094 C 9.566406 25.996094 8.507812 26.417969 6.53125 27.292969 C 4.375 28.25 3.5625 28.550781 3.152344 28.550781 C 2.71875 28.550781 2.660156 28.335938 2.585938 26.492188 C 2.542969 25.441406 2.554688 20.066406 2.613281 13.027344 L 2.640625 10.144531 L 3.609375 9.6875 C 5.675781 8.722656 7.945312 7.714844 8.742188 7.414062 C 9.746094 7.03125 10.019531 7.015625 10.757812 7.292969 C 11.007812 7.386719 11.21875 7.457031 11.226562 7.449219 C 11.234375 7.441406 11.199219 7.074219 11.144531 6.636719 C 10.972656 5.25 11.027344 4.898438 11.582031 3.753906 C 12.21875 2.441406 12.886719 1.730469 14.011719 1.167969 C 14.515625 0.914062 14.933594 0.761719 15.363281 0.671875 C 15.699219 0.605469 15.820312 0.597656 16.382812 0.613281 C 17.074219 0.636719 17.382812 0.6875 17.996094 0.894531 C 19.199219 1.296875 20.292969 2.117188 20.953125 3.121094 C 21.277344 3.605469 21.386719 3.835938 21.496094 4.234375 C 21.570312 4.503906 21.578125 4.628906 21.59375 5.90625 C 21.605469 7.015625 21.617188 7.28125 21.65625 7.265625 C 21.679688 7.257812 21.886719 7.210938 22.109375 7.167969 C 22.480469 7.09375 22.546875 7.089844 22.804688 7.128906 C 23.304688 7.207031 24.011719 7.453125 25.25 7.984375 C 26.910156 8.695312 29.636719 10.003906 29.699219 10.117188 C 29.851562 10.40625 29.941406 12.210938 29.992188 15.960938 C 30.066406 21.453125 29.902344 27.777344 29.667969 28.378906 C 29.527344 28.746094 28.835938 28.546875 26.324219 27.421875 C 24.335938 26.527344 23.023438 25.996094 22.796875 25.996094 C 22.472656 25.996094 21.433594 26.425781 18.203125 27.898438 C 17.148438 28.378906 16.28125 28.769531 16.269531 28.769531 C 16.261719 28.769531 15.449219 28.398438 14.46875 27.945312 Z M 15.761719 22.882812 L 15.761719 18.78125 L 15.207031 18.296875 C 14.007812 17.25 13.886719 17.109375 14.011719 16.875 C 14.066406 16.777344 14.238281 16.691406 14.394531 16.691406 C 14.578125 16.691406 14.75 16.789062 15.273438 17.1875 C 15.519531 17.378906 15.734375 17.53125 15.746094 17.53125 C 15.757812 17.53125 15.761719 17.003906 15.753906 16.355469 C 15.734375 15.082031 15.71875 14.941406 15.515625 14.496094 C 15.363281 14.164062 15.113281 13.777344 14.390625 12.761719 C 14.035156 12.265625 13.558594 11.570312 13.328125 11.21875 C 13.09375 10.867188 12.816406 10.449219 12.710938 10.285156 C 12.492188 9.953125 12.027344 9.488281 11.695312 9.269531 C 11.472656 9.121094 10.667969 8.785156 10.457031 8.75 L 10.335938 8.730469 L 10.3125 8.925781 C 10.273438 9.230469 10.21875 12.351562 10.21875 14.34375 L 10.214844 16.140625 L 11.320312 16.15625 C 12.242188 16.167969 12.453125 16.179688 12.589844 16.230469 C 12.777344 16.304688 12.84375 16.375 12.84375 16.511719 C 12.84375 16.785156 12.476562 16.882812 11.136719 16.953125 C 10.671875 16.980469 10.269531 17.011719 10.246094 17.023438 C 10.199219 17.054688 10.339844 24.492188 10.386719 24.539062 C 10.402344 24.554688 11.230469 24.9375 12.222656 25.390625 C 13.21875 25.839844 14.40625 26.382812 14.867188 26.597656 C 15.332031 26.808594 15.71875 26.980469 15.734375 26.980469 C 15.75 26.984375 15.761719 25.136719 15.761719 22.882812 Z M 17.421875 26.714844 C 17.722656 26.585938 18.40625 26.285156 18.9375 26.039062 C 19.46875 25.796875 20.429688 25.363281 21.070312 25.074219 L 22.238281 24.550781 L 22.238281 17.824219 C 22.238281 11.488281 22.210938 9.308594 22.125 8.882812 C 22.105469 8.792969 22.085938 8.777344 21.988281 8.777344 C 21.71875 8.777344 21.289062 9.027344 20.867188 9.425781 C 20.515625 9.753906 20.332031 9.996094 19.625 11.046875 C 19.070312 11.867188 18.554688 12.601562 17.53125 14.011719 C 17.136719 14.550781 16.929688 14.929688 16.832031 15.269531 C 16.773438 15.484375 16.765625 15.664062 16.765625 17.058594 C 16.765625 19.070312 16.761719 19.046875 17.519531 19.996094 C 18.347656 21.035156 18.492188 21.347656 18.242188 21.5625 C 18.179688 21.613281 18.097656 21.65625 18.058594 21.65625 C 17.917969 21.65625 17.703125 21.507812 17.3125 21.15625 C 17.097656 20.957031 16.882812 20.769531 16.835938 20.730469 L 16.746094 20.664062 L 16.746094 23.824219 C 16.746094 26.820312 16.75 26.988281 16.8125 26.96875 C 16.847656 26.957031 17.121094 26.84375 17.421875 26.714844 Z M 28.4375 26.589844 C 28.476562 26.34375 28.53125 21.542969 28.53125 18.578125 L 28.535156 16.066406 L 28.414062 16.082031 C 28.351562 16.089844 28.125 16.128906 27.914062 16.164062 C 27.355469 16.261719 27.257812 16.214844 27.3125 15.878906 C 27.332031 15.761719 27.378906 15.6875 27.507812 15.558594 C 27.671875 15.402344 27.753906 15.363281 28.109375 15.289062 C 28.167969 15.277344 28.257812 15.222656 28.316406 15.167969 C 28.484375 14.996094 28.507812 14.734375 28.511719 12.753906 L 28.515625 10.984375 L 27.421875 10.480469 C 26.820312 10.203125 25.921875 9.78125 25.433594 9.542969 C 24.414062 9.050781 24.167969 8.957031 23.878906 8.957031 C 23.695312 8.957031 23.660156 8.96875 23.550781 9.078125 C 23.40625 9.226562 23.332031 9.464844 23.28125 9.941406 C 23.234375 10.375 23.234375 16.058594 23.277344 18.445312 C 23.3125 20.171875 23.34375 20.601562 23.449219 20.707031 C 23.496094 20.753906 23.53125 20.730469 23.765625 20.472656 C 24.015625 20.199219 24.289062 20.015625 24.449219 20.015625 C 24.554688 20.011719 24.699219 20.15625 24.722656 20.285156 C 24.761719 20.496094 24.449219 21.023438 23.917969 21.636719 C 23.628906 21.96875 23.441406 22.269531 23.351562 22.53125 C 23.273438 22.757812 23.273438 22.804688 23.296875 23.460938 C 23.308594 23.84375 23.332031 24.242188 23.347656 24.351562 L 23.371094 24.546875 L 24.117188 24.890625 C 25.78125 25.65625 26.371094 25.917969 27.328125 26.332031 C 27.882812 26.570312 28.351562 26.765625 28.375 26.765625 C 28.394531 26.765625 28.425781 26.6875 28.4375 26.589844 Z M 4.863281 26.507812 C 5.136719 26.425781 5.503906 26.261719 6.824219 25.644531 C 7.335938 25.40625 8.09375 25.054688 8.511719 24.863281 L 9.265625 24.519531 L 9.265625 20.769531 C 9.269531 18.648438 9.253906 17.023438 9.234375 17.023438 C 9.21875 17.023438 8.867188 17.160156 8.457031 17.328125 C 7.480469 17.730469 7.296875 17.792969 6.980469 17.8125 C 6.734375 17.832031 6.714844 17.828125 6.625 17.738281 C 6.433594 17.546875 6.523438 17.34375 6.90625 17.101562 C 7.515625 16.71875 8.21875 16.511719 8.910156 16.511719 L 9.277344 16.511719 L 9.257812 13.21875 C 9.238281 10.292969 9.207031 9.207031 9.136719 8.875 C 9.109375 8.742188 9.039062 8.746094 8.632812 8.90625 C 7.746094 9.261719 4.234375 10.84375 4.140625 10.933594 C 4.109375 10.964844 3.933594 19.308594 3.964844 19.351562 C 3.976562 19.371094 4.195312 19.179688 4.757812 18.65625 C 5.390625 18.070312 5.480469 18.03125 5.601562 18.285156 C 5.65625 18.40625 5.65625 18.425781 5.585938 18.65625 C 5.402344 19.257812 4.691406 20.25 4.300781 20.453125 C 4.210938 20.5 4.160156 20.554688 4.144531 20.625 C 4.03125 21.148438 3.96875 22.773438 3.988281 24.609375 C 4.003906 26.203125 4.011719 26.292969 4.195312 26.476562 C 4.324219 26.605469 4.515625 26.613281 4.863281 26.507812 Z M 16.683594 12.707031 C 17.261719 12.015625 17.65625 11.453125 18.488281 10.125 C 19.441406 8.605469 19.910156 7.578125 20.144531 6.507812 C 20.261719 5.976562 20.261719 5.097656 20.148438 4.671875 C 19.964844 3.992188 19.546875 3.371094 18.976562 2.945312 C 16.910156 1.386719 14.3125 1.851562 12.988281 4.015625 C 12.125 5.425781 12.410156 6.929688 14.0625 9.6875 C 14.351562 10.171875 16.292969 13.117188 16.324219 13.117188 C 16.332031 13.117188 16.492188 12.933594 16.683594 12.707031 Z M 16.683594 12.707031 "/>
      <path style=" stroke:none;fill-rule:nonzero;fill:rgb(47.058824%,21.568627%,25.490196%);fill-opacity:1;"
            d="M 11.214844 7.429688 L 12.214844 9.734375 "/>
      <path style=" stroke:none;fill-rule:nonzero;fill:rgb(47.058824%,21.568627%,25.490196%);fill-opacity:1;"
            d="M 11.917969 8.125 L 12.574219 8.292969 "/>
      <path style=" stroke:none;fill-rule:nonzero;fill:rgb(47.058824%,21.568627%,25.490196%);fill-opacity:1;"
            d="M 12.179688 7.734375 L 11.242188 7.699219 "/>
   </g>
</svg>
