<?xml version="1.0" encoding="UTF-8"?>
<svg xmlns="http://www.w3.org/2000/svg" width="40px" height="40px" viewBox="0 0 40 40" version="1.1">
   <g id="surface1">
      <path style=" stroke:none;fill-rule:nonzero;fill:rgb(0%,0%,0%);fill-opacity:1;"
            d="M 18.40625 1.03125 C 16.5 1.75 15.375 2.75 14.5 4.5625 C 13.8125 5.96875 13.6875 6.53125 13.84375 7.78125 L 14.03125 9.3125 L 13.125 8.96875 C 12.34375 8.6875 11.84375 8.8125 9.15625 9.96875 C 7.46875 10.71875 5.46875 11.625 4.6875 12 L 3.28125 12.65625 L 3.1875 23.9375 C 3.125 33.5625 3.1875 35.28125 3.5625 35.625 C 3.9375 35.90625 4.78125 35.65625 7.9375 34.25 C 10.0625 33.28125 12 32.5 12.25 32.5 C 12.5 32.5 14.4375 33.28125 16.53125 34.25 L 20.34375 36 L 24.1875 34.25 C 26.28125 33.28125 28.21875 32.5 28.46875 32.5 C 28.71875 32.5 30.65625 33.28125 32.78125 34.25 C 35.8125 35.625 36.6875 35.90625 37.0625 35.59375 C 37.65625 35.09375 37.71875 13.0625 37.125 12.59375 C 36.90625 12.40625 34.9375 11.46875 32.75 10.46875 C 29.75 9.125 28.59375 8.75 27.90625 8.875 L 27.03125 9.0625 L 27.03125 7.0625 C 27.03125 5.3125 26.90625 4.875 26.09375 3.6875 C 24.375 1.28125 20.9375 0.09375 18.40625 1.03125 Z M 22.78125 3.125 C 25.84375 4.65625 26.09375 7.6875 23.5625 11.875 C 22.71875 13.28125 21.65625 14.875 21.21875 15.40625 L 20.40625 16.375 L 18.78125 13.9375 C 15.8125 9.53125 15.09375 7.25 16.0625 5.375 C 17.40625 2.78125 20.28125 1.8125 22.78125 3.125 Z M 11.5625 15.78125 L 11.5625 20.625 L 10.78125 20.625 C 9.84375 20.625 8.125 21.4375 8.125 21.875 C 8.125 22.46875 8.75 22.46875 10.125 21.875 L 11.5625 21.28125 L 11.5625 30.625 L 8.90625 31.84375 C 4.59375 33.84375 5 34.09375 5 29.5625 C 5 27.40625 5.125 25.625 5.28125 25.625 C 5.8125 25.625 7.25 23.40625 7.0625 22.90625 C 6.875 22.46875 6.71875 22.53125 5.90625 23.3125 L 4.96875 24.1875 L 5.15625 13.6875 L 8.125 12.3125 C 9.75 11.59375 11.1875 10.96875 11.34375 10.96875 C 11.46875 10.9375 11.5625 13.125 11.5625 15.78125 Z M 14.1875 11.375 C 14.78125 11.625 15.53125 12.3125 15.96875 13 C 16.34375 13.6875 17.375 15.15625 18.1875 16.28125 C 19.5625 18.1875 19.6875 18.53125 19.6875 20.15625 L 19.6875 21.90625 L 18.875 21.28125 C 18.21875 20.78125 17.9375 20.71875 17.59375 20.96875 C 17.25 21.28125 17.40625 21.53125 18.4375 22.40625 L 19.6875 23.5 L 19.6875 33.71875 L 16.34375 32.1875 L 12.96875 30.65625 L 12.78125 21.28125 L 14.4375 21.1875 C 15.65625 21.125 16.09375 20.96875 16.09375 20.625 C 16.09375 20.28125 15.6875 20.15625 14.4375 20.15625 L 12.8125 20.15625 L 12.8125 15.53125 C 12.8125 13 12.875 10.9375 12.96875 10.9375 C 13.0625 10.9375 13.625 11.125 14.1875 11.375 Z M 27.8125 20.78125 L 27.8125 30.65625 L 25.71875 31.59375 C 24.53125 32.125 23 32.8125 22.28125 33.15625 L 20.9375 33.71875 L 20.9375 25.84375 L 21.71875 26.5625 C 22.3125 27.125 22.59375 27.21875 22.875 26.9375 C 23.125 26.6875 22.9375 26.25 22.09375 25.1875 C 20.96875 23.84375 20.9375 23.71875 20.9375 21.3125 C 20.9375 18.84375 20.9375 18.84375 22.4375 16.84375 C 23.25 15.75 24.375 14.125 24.9375 13.25 C 25.8125 11.875 26.78125 11.03125 27.59375 10.96875 C 27.71875 10.9375 27.8125 15.375 27.8125 20.78125 Z M 32.96875 12.53125 L 35.625 13.75 L 35.625 16.375 C 35.625 18.875 35.59375 19.03125 34.9375 19.125 C 34.53125 19.1875 34.1875 19.46875 34.125 19.8125 C 34.03125 20.28125 34.15625 20.375 34.8125 20.25 L 35.625 20.09375 L 35.625 26.75 C 35.625 30.4375 35.5625 33.4375 35.5 33.4375 C 35.40625 33.4375 33.96875 32.8125 32.28125 32.0625 L 29.21875 30.65625 L 29.125 29.375 C 29.03125 28.3125 29.1875 27.90625 29.96875 27 C 30.5 26.40625 30.9375 25.71875 30.9375 25.46875 C 30.9375 24.75 30.125 24.90625 29.59375 25.6875 C 29.125 26.34375 29.09375 25.78125 29.09375 18.65625 C 29.0625 9.6875 28.5625 10.46875 32.96875 12.53125 Z M 32.96875 12.53125 "/>
      <path style=" stroke:none;fill-rule:nonzero;fill:rgb(0%,0%,0%);fill-opacity:1;"
            d="M 19.21875 5.0625 C 17.625 5.96875 17.34375 7.84375 18.5625 9.25 C 20.15625 11.125 23.125 9.90625 23.125 7.4375 C 23.125 5.28125 21.03125 4.03125 19.21875 5.0625 Z M 21.6875 6.53125 C 22.78125 7.75 21.1875 9.5625 19.71875 8.78125 C 19 8.375 18.8125 6.9375 19.4375 6.3125 C 20 5.75 21.09375 5.875 21.6875 6.53125 Z M 21.6875 6.53125 "/>
      <path style=" stroke:none;fill-rule:nonzero;fill:rgb(0%,0%,0%);fill-opacity:1;"
            d="M 24.0625 27.8125 C 24.0625 28.28125 24.375 28.4375 25.5 28.625 C 26.40625 28.75 27.0625 28.6875 27.28125 28.46875 C 27.78125 27.96875 27.25 27.59375 25.5625 27.375 C 24.21875 27.21875 24.0625 27.25 24.0625 27.8125 Z M 24.0625 27.8125 "/>
      <path style=" stroke:none;fill-rule:nonzero;fill:rgb(0%,0%,0%);fill-opacity:1;"
            d="M 31.65625 22.09375 C 31.03125 23.25 31 24.0625 31.5625 24.0625 C 31.84375 24.0625 33.4375 21.5625 33.4375 21.15625 C 33.4375 21.03125 33.1875 20.9375 32.875 20.9375 C 32.53125 20.9375 32.03125 21.40625 31.65625 22.09375 Z M 31.65625 22.09375 "/>
      <path style=" stroke:none;fill-rule:nonzero;fill:rgb(96.470588%,72.941176%,69.019608%);fill-opacity:1;"
            d="M 19.230469 14.5625 C 17.886719 12.527344 17.605469 12.082031 17.125 11.222656 C 15.722656 8.714844 15.378906 7.066406 15.964844 5.664062 C 16.285156 4.890625 17.066406 3.929688 17.769531 3.445312 C 18.210938 3.140625 18.851562 2.839844 19.339844 2.707031 C 19.667969 2.617188 19.839844 2.601562 20.480469 2.601562 C 21.160156 2.601562 21.273438 2.613281 21.683594 2.726562 C 22.808594 3.039062 23.96875 3.789062 24.519531 4.5625 C 25.597656 6.078125 25.496094 8.046875 24.199219 10.648438 C 23.714844 11.621094 22.550781 13.503906 21.660156 14.761719 C 21.34375 15.210938 20.453125 16.304688 20.40625 16.304688 C 20.394531 16.304688 19.863281 15.519531 19.230469 14.5625 Z M 21.003906 10.125 C 21.523438 10.015625 21.957031 9.777344 22.347656 9.378906 C 22.894531 8.824219 23.125 8.253906 23.128906 7.453125 C 23.128906 6.589844 22.902344 6 22.351562 5.449219 C 21.773438 4.871094 21.191406 4.644531 20.410156 4.6875 C 19.699219 4.730469 19.089844 5.015625 18.539062 5.5625 C 17.554688 6.546875 17.535156 8.046875 18.488281 9.199219 C 19.148438 9.992188 20.050781 10.324219 21.003906 10.125 Z M 21.003906 10.125 "/>
      <path style=" stroke:none;fill-rule:nonzero;fill:rgb(96.470588%,90.980392%,60.392157%);fill-opacity:1;"
            d="M 5.296875 33.058594 C 5.058594 32.820312 5.046875 32.71875 5.027344 30.742188 C 5.003906 28.476562 5.085938 26.433594 5.222656 25.789062 C 5.242188 25.710938 5.296875 25.65625 5.402344 25.617188 C 5.589844 25.550781 6.054688 25.066406 6.371094 24.601562 C 6.675781 24.15625 7.007812 23.503906 7.074219 23.207031 C 7.121094 23 7.117188 22.957031 7.042969 22.824219 C 6.835938 22.472656 6.703125 22.535156 5.738281 23.429688 C 5.335938 23.804688 5.003906 24.105469 5 24.097656 C 4.996094 24.089844 5.03125 21.757812 5.085938 18.917969 C 5.144531 15.617188 5.195312 13.738281 5.222656 13.710938 C 5.386719 13.542969 11.085938 11.015625 11.292969 11.015625 C 11.453125 11.015625 11.5 12.074219 11.523438 16.492188 L 11.550781 20.582031 L 10.941406 20.605469 C 10.464844 20.621094 10.238281 20.65625 9.921875 20.75 C 9.371094 20.910156 8.554688 21.316406 8.3125 21.550781 C 8.148438 21.707031 8.117188 21.765625 8.117188 21.917969 C 8.117188 22.203125 8.269531 22.324219 8.609375 22.324219 C 8.984375 22.324219 9.300781 22.234375 10.261719 21.84375 C 10.726562 21.652344 11.203125 21.460938 11.324219 21.410156 L 11.539062 21.324219 L 11.539062 30.609375 L 10.5 31.082031 C 9.929688 31.339844 8.898438 31.820312 8.210938 32.144531 C 6.566406 32.917969 6.019531 33.140625 5.695312 33.167969 C 5.449219 33.191406 5.421875 33.183594 5.296875 33.058594 Z M 5.296875 33.058594 "/>
      <path style=" stroke:none;fill-rule:nonzero;fill:rgb(96.470588%,90.980392%,60.392157%);fill-opacity:1;"
            d="M 18.882812 33.324219 C 18.46875 33.128906 16.980469 32.449219 15.574219 31.8125 C 14.171875 31.175781 13.015625 30.648438 13.007812 30.644531 C 12.984375 30.632812 12.8125 21.980469 12.828125 21.621094 L 12.839844 21.300781 L 13.820312 21.246094 C 15.707031 21.144531 16.101562 21.03125 16.101562 20.605469 C 16.101562 20.425781 15.976562 20.300781 15.71875 20.226562 C 15.597656 20.191406 15.046875 20.164062 14.164062 20.148438 L 12.800781 20.128906 L 12.832031 16.242188 C 12.859375 12.792969 12.90625 11.046875 12.972656 10.980469 C 13.003906 10.949219 13.785156 11.222656 14.160156 11.402344 C 14.335938 11.484375 14.582031 11.625 14.710938 11.714844 C 15.078125 11.984375 15.65625 12.585938 15.875 12.929688 C 16.414062 13.78125 17.246094 15.011719 17.910156 15.945312 C 19.097656 17.605469 19.339844 18.011719 19.527344 18.640625 C 19.617188 18.945312 19.628906 19.101562 19.644531 20.40625 C 19.664062 21.5625 19.65625 21.828125 19.609375 21.800781 C 19.574219 21.777344 19.339844 21.601562 19.085938 21.40625 C 18.480469 20.945312 18.242188 20.820312 17.964844 20.820312 C 17.785156 20.820312 17.71875 20.847656 17.585938 20.960938 C 17.40625 21.121094 17.375 21.28125 17.488281 21.496094 C 17.574219 21.65625 18 22.066406 18.917969 22.867188 L 19.65625 23.515625 L 19.65625 28.601562 C 19.65625 31.394531 19.652344 33.679688 19.648438 33.679688 C 19.640625 33.675781 19.296875 33.515625 18.882812 33.324219 Z M 18.882812 33.324219 "/>
      <path style=" stroke:none;fill-rule:nonzero;fill:rgb(96.470588%,90.980392%,60.392157%);fill-opacity:1;"
            d="M 20.980469 29.800781 L 20.980469 25.921875 L 21.480469 26.382812 C 22.308594 27.144531 22.578125 27.257812 22.859375 26.976562 C 22.984375 26.851562 22.996094 26.816406 22.976562 26.613281 C 22.945312 26.289062 22.71875 25.9375 21.683594 24.628906 C 21.546875 24.453125 21.359375 24.164062 21.273438 23.988281 C 21.015625 23.476562 20.984375 23.167969 20.984375 21.324219 C 20.984375 18.855469 20.976562 18.875 22.316406 17.050781 C 23.289062 15.726562 23.773438 15.035156 24.605469 13.796875 C 25.472656 12.503906 25.648438 12.277344 26.171875 11.785156 C 26.601562 11.375 27.074219 11.085938 27.398438 11.035156 L 27.585938 11.003906 L 27.613281 11.179688 C 27.710938 11.769531 27.742188 14.15625 27.761719 22.03125 L 27.78125 30.648438 L 26.605469 31.171875 C 25.957031 31.457031 24.730469 32.011719 23.875 32.398438 C 23.023438 32.785156 22.023438 33.230469 21.652344 33.386719 L 20.980469 33.675781 Z M 26.871094 28.664062 C 27.167969 28.609375 27.316406 28.507812 27.425781 28.289062 C 27.546875 28.046875 27.453125 27.890625 27.082031 27.714844 C 26.457031 27.417969 24.539062 27.164062 24.226562 27.335938 C 24.035156 27.441406 23.976562 27.796875 24.101562 28.097656 C 24.191406 28.304688 24.496094 28.449219 25.113281 28.574219 C 25.828125 28.714844 26.433594 28.746094 26.871094 28.664062 Z M 26.871094 28.664062 "/>
      <path style=" stroke:none;fill-rule:nonzero;fill:rgb(96.470588%,90.980392%,60.392157%);fill-opacity:1;"
            d="M 35.394531 33.375 C 35.097656 33.285156 32.378906 32.078125 29.941406 30.960938 L 29.257812 30.644531 L 29.222656 30.375 C 29.199219 30.226562 29.179688 29.691406 29.175781 29.191406 L 29.167969 28.277344 L 29.3125 27.980469 C 29.394531 27.820312 29.640625 27.464844 29.859375 27.191406 C 30.625 26.25 30.96875 25.703125 30.96875 25.425781 C 30.96875 25.261719 30.8125 25.035156 30.675781 25 C 30.382812 24.925781 29.960938 25.167969 29.632812 25.589844 C 29.527344 25.726562 29.414062 25.835938 29.382812 25.839844 C 29.164062 25.839844 29.132812 24.992188 29.128906 18.359375 C 29.121094 12.027344 29.121094 12.058594 29.351562 11.585938 C 29.484375 11.308594 29.597656 11.230469 29.867188 11.234375 C 30.183594 11.242188 30.441406 11.34375 31.835938 12.015625 C 32.550781 12.359375 33.695312 12.894531 34.378906 13.207031 L 35.621094 13.773438 L 35.617188 15.394531 C 35.617188 17.21875 35.566406 18.496094 35.484375 18.699219 C 35.398438 18.929688 35.261719 19.035156 34.988281 19.089844 C 34.507812 19.191406 34.214844 19.414062 34.117188 19.761719 C 34.011719 20.140625 34.101562 20.320312 34.402344 20.320312 C 34.496094 20.320312 34.78125 20.277344 35.039062 20.226562 C 35.296875 20.179688 35.53125 20.136719 35.5625 20.136719 C 35.609375 20.136719 35.621094 20.800781 35.621094 23.316406 C 35.617188 27.085938 35.542969 33.054688 35.496094 33.253906 C 35.472656 33.351562 35.441406 33.386719 35.394531 33.375 Z M 31.707031 24.003906 C 32.101562 23.667969 33.289062 21.800781 33.429688 21.285156 C 33.464844 21.164062 33.457031 21.121094 33.386719 21.050781 C 33.273438 20.9375 32.921875 20.886719 32.703125 20.953125 C 31.898438 21.191406 30.820312 23.398438 31.242188 23.9375 C 31.292969 24 31.382812 24.0625 31.4375 24.074219 C 31.492188 24.082031 31.550781 24.09375 31.5625 24.097656 C 31.574219 24.101562 31.640625 24.058594 31.707031 24.003906 Z M 31.707031 24.003906 "/>
      <path style=" stroke:none;fill-rule:nonzero;fill:rgb(0%,0%,0%);fill-opacity:1;"
            d="M 18.085938 34.933594 C 14.308594 33.195312 12.628906 32.496094 12.242188 32.496094 C 11.957031 32.496094 10.636719 33.023438 8.164062 34.117188 C 5.46875 35.3125 4.453125 35.691406 3.9375 35.691406 C 3.398438 35.691406 3.328125 35.421875 3.234375 33.113281 C 3.179688 31.800781 3.195312 25.085938 3.269531 16.28125 L 3.296875 12.679688 L 4.511719 12.113281 C 7.09375 10.902344 9.933594 9.644531 10.925781 9.265625 C 12.183594 8.792969 12.527344 8.769531 13.449219 9.117188 C 13.761719 9.234375 14.023438 9.320312 14.035156 9.308594 C 14.046875 9.300781 14 8.84375 13.929688 8.292969 C 13.71875 6.5625 13.785156 6.125 14.476562 4.695312 C 15.273438 3.050781 16.109375 2.160156 17.515625 1.457031 C 18.144531 1.144531 18.664062 0.953125 19.203125 0.84375 C 19.621094 0.753906 19.777344 0.746094 20.480469 0.769531 C 21.34375 0.792969 21.726562 0.859375 22.492188 1.117188 C 24 1.621094 25.363281 2.648438 26.191406 3.898438 C 26.59375 4.507812 26.734375 4.796875 26.871094 5.292969 C 26.964844 5.628906 26.972656 5.789062 26.988281 7.378906 C 27.003906 8.769531 27.019531 9.101562 27.070312 9.082031 C 27.101562 9.070312 27.359375 9.015625 27.640625 8.957031 C 28.097656 8.867188 28.183594 8.863281 28.507812 8.910156 C 29.132812 9.007812 30.015625 9.316406 31.5625 9.976562 C 33.640625 10.867188 37.046875 12.503906 37.121094 12.648438 C 37.316406 13.007812 37.429688 15.265625 37.492188 19.949219 C 37.582031 26.816406 37.375 34.71875 37.085938 35.472656 C 36.910156 35.933594 36.046875 35.683594 32.90625 34.277344 C 30.421875 33.160156 28.78125 32.496094 28.496094 32.496094 C 28.089844 32.496094 26.792969 33.035156 22.757812 34.871094 C 21.4375 35.472656 20.347656 35.964844 20.339844 35.960938 C 20.328125 35.960938 19.3125 35.5 18.085938 34.933594 Z M 19.703125 28.601562 L 19.703125 23.476562 L 19.007812 22.871094 C 17.507812 21.5625 17.359375 21.382812 17.515625 21.09375 C 17.582031 20.96875 17.800781 20.867188 17.992188 20.867188 C 18.222656 20.867188 18.4375 20.988281 19.089844 21.484375 C 19.402344 21.722656 19.667969 21.914062 19.683594 21.914062 C 19.699219 21.914062 19.703125 21.253906 19.691406 20.445312 C 19.667969 18.851562 19.644531 18.675781 19.394531 18.117188 C 19.203125 17.707031 18.890625 17.222656 17.988281 15.949219 C 17.546875 15.332031 16.949219 14.464844 16.660156 14.023438 C 16.371094 13.585938 16.023438 13.058594 15.886719 12.855469 C 15.617188 12.445312 15.03125 11.859375 14.621094 11.585938 C 14.339844 11.402344 13.335938 10.980469 13.070312 10.9375 L 12.921875 10.914062 L 12.890625 11.160156 C 12.84375 11.535156 12.773438 15.4375 12.773438 17.933594 L 12.769531 20.171875 L 14.152344 20.191406 C 15.304688 20.210938 15.5625 20.226562 15.734375 20.289062 C 15.972656 20.378906 16.054688 20.46875 16.054688 20.640625 C 16.054688 20.980469 15.59375 21.101562 13.921875 21.191406 C 13.339844 21.222656 12.839844 21.261719 12.808594 21.28125 C 12.75 21.320312 12.921875 30.617188 12.984375 30.675781 C 13.003906 30.695312 14.039062 31.171875 15.28125 31.738281 C 16.519531 32.300781 18.007812 32.980469 18.585938 33.246094 C 19.164062 33.511719 19.652344 33.726562 19.667969 33.726562 C 19.6875 33.726562 19.703125 31.421875 19.703125 28.601562 Z M 21.777344 33.394531 C 22.15625 33.234375 23.007812 32.855469 23.671875 32.550781 C 24.335938 32.246094 25.535156 31.707031 26.339844 31.34375 L 27.800781 30.691406 L 27.796875 22.277344 C 27.796875 14.359375 27.761719 11.636719 27.65625 11.101562 C 27.632812 10.988281 27.605469 10.96875 27.484375 10.96875 C 27.148438 10.972656 26.609375 11.28125 26.082031 11.78125 C 25.644531 12.191406 25.414062 12.492188 24.53125 13.804688 C 23.839844 14.835938 23.191406 15.75 21.914062 17.515625 C 21.421875 18.191406 21.164062 18.660156 21.042969 19.085938 C 20.964844 19.355469 20.957031 19.578125 20.957031 21.324219 C 20.957031 23.839844 20.949219 23.808594 21.898438 24.996094 C 22.9375 26.292969 23.117188 26.6875 22.800781 26.953125 C 22.722656 27.015625 22.621094 27.070312 22.570312 27.070312 C 22.398438 27.070312 22.128906 26.886719 21.640625 26.445312 C 21.371094 26.199219 21.101562 25.960938 21.042969 25.914062 L 20.933594 25.832031 L 20.933594 29.78125 C 20.933594 33.527344 20.9375 33.734375 21.015625 33.710938 C 21.058594 33.695312 21.402344 33.554688 21.777344 33.394531 Z M 35.550781 33.238281 C 35.59375 32.929688 35.664062 26.929688 35.664062 23.222656 L 35.667969 20.082031 L 35.519531 20.101562 C 35.4375 20.113281 35.15625 20.160156 34.890625 20.207031 C 34.195312 20.328125 34.070312 20.269531 34.140625 19.851562 C 34.164062 19.703125 34.222656 19.609375 34.386719 19.449219 C 34.589844 19.25 34.691406 19.203125 35.136719 19.109375 C 35.210938 19.09375 35.324219 19.027344 35.394531 18.957031 C 35.605469 18.746094 35.632812 18.417969 35.640625 15.941406 L 35.644531 13.730469 L 34.277344 13.101562 C 33.523438 12.753906 32.40625 12.226562 31.789062 11.929688 C 30.519531 11.3125 30.210938 11.199219 29.847656 11.199219 C 29.617188 11.199219 29.574219 11.214844 29.441406 11.347656 C 29.257812 11.53125 29.164062 11.832031 29.101562 12.429688 C 29.042969 12.964844 29.042969 20.070312 29.097656 23.054688 C 29.140625 25.214844 29.179688 25.753906 29.308594 25.882812 C 29.371094 25.945312 29.414062 25.910156 29.703125 25.589844 C 30.015625 25.246094 30.359375 25.019531 30.5625 25.015625 C 30.691406 25.015625 30.875 25.199219 30.902344 25.355469 C 30.953125 25.617188 30.558594 26.277344 29.894531 27.046875 C 29.539062 27.460938 29.300781 27.835938 29.1875 28.164062 C 29.09375 28.445312 29.089844 28.507812 29.121094 29.328125 C 29.136719 29.804688 29.164062 30.304688 29.183594 30.441406 L 29.214844 30.683594 L 30.148438 31.113281 C 32.226562 32.066406 32.960938 32.398438 34.160156 32.914062 C 34.851562 33.210938 35.4375 33.453125 35.46875 33.453125 C 35.496094 33.453125 35.53125 33.359375 35.550781 33.238281 Z M 6.082031 33.136719 C 6.421875 33.03125 6.878906 32.828125 8.527344 32.054688 C 9.167969 31.757812 10.117188 31.316406 10.636719 31.082031 L 11.582031 30.648438 L 11.585938 25.964844 C 11.585938 23.308594 11.566406 21.277344 11.546875 21.277344 C 11.523438 21.277344 11.082031 21.449219 10.570312 21.660156 C 9.351562 22.164062 9.121094 22.238281 8.726562 22.269531 C 8.421875 22.289062 8.390625 22.285156 8.28125 22.175781 C 8.042969 21.933594 8.152344 21.679688 8.632812 21.378906 C 9.394531 20.898438 10.273438 20.636719 11.136719 20.636719 L 11.597656 20.636719 L 11.570312 16.523438 C 11.546875 12.867188 11.511719 11.511719 11.421875 11.09375 C 11.386719 10.925781 11.300781 10.933594 10.792969 11.136719 C 9.679688 11.578125 5.292969 13.554688 5.175781 13.667969 C 5.136719 13.703125 4.917969 24.132812 4.957031 24.191406 C 4.96875 24.210938 5.242188 23.972656 5.949219 23.320312 C 6.738281 22.585938 6.847656 22.539062 7 22.855469 C 7.074219 23.007812 7.070312 23.03125 6.984375 23.320312 C 6.753906 24.074219 5.863281 25.3125 5.375 25.566406 C 5.261719 25.625 5.199219 25.695312 5.179688 25.78125 C 5.039062 26.4375 4.960938 28.46875 4.984375 30.765625 C 5.003906 32.757812 5.015625 32.867188 5.246094 33.097656 C 5.40625 33.257812 5.648438 33.269531 6.082031 33.136719 Z M 20.851562 15.882812 C 21.578125 15.019531 22.066406 14.316406 23.109375 12.65625 C 24.300781 10.753906 24.890625 9.472656 25.179688 8.136719 C 25.324219 7.46875 25.328125 6.371094 25.183594 5.839844 C 24.957031 4.988281 24.433594 4.214844 23.722656 3.679688 C 21.136719 1.734375 17.890625 2.3125 16.234375 5.015625 C 15.15625 6.785156 15.511719 8.660156 17.578125 12.109375 C 17.941406 12.714844 20.367188 16.398438 20.402344 16.398438 C 20.414062 16.398438 20.617188 16.164062 20.851562 15.882812 Z M 20.851562 15.882812 "/>
      <path style=" stroke:none;fill-rule:nonzero;fill:rgb(47.058824%,21.568627%,25.490196%);fill-opacity:1;"
            d="M 14.019531 9.289062 L 15.269531 12.167969 "/>
      <path style=" stroke:none;fill-rule:nonzero;fill:rgb(47.058824%,21.568627%,25.490196%);fill-opacity:1;"
            d="M 14.898438 10.152344 L 15.71875 10.363281 "/>
      <path style=" stroke:none;fill-rule:nonzero;fill:rgb(47.058824%,21.568627%,25.490196%);fill-opacity:1;"
            d="M 15.222656 9.667969 L 14.054688 9.625 "/>
   </g>
</svg>
