<?xml version="1.0" encoding="UTF-8"?>
<svg xmlns="http://www.w3.org/2000/svg" width="13px" height="13px" viewBox="0 0 13 13" version="1.1">
   <g id="surface1">
      <path style=" stroke:none;fill-rule:nonzero;fill:rgb(0%,0%,0%);fill-opacity:1;"
            d="M 5.980469 0.335938 C 5.363281 0.570312 4.996094 0.894531 4.710938 1.484375 C 4.488281 1.941406 4.449219 2.121094 4.5 2.527344 L 4.558594 3.027344 L 4.265625 2.914062 C 4.011719 2.824219 3.847656 2.863281 2.976562 3.238281 C 2.425781 3.484375 1.777344 3.777344 1.523438 3.898438 L 1.066406 4.113281 L 1.035156 7.78125 C 1.015625 10.90625 1.035156 11.464844 1.15625 11.578125 C 1.28125 11.667969 1.554688 11.589844 2.578125 11.132812 C 3.269531 10.816406 3.898438 10.5625 3.980469 10.5625 C 4.0625 10.5625 4.691406 10.816406 5.371094 11.132812 L 6.613281 11.699219 L 7.859375 11.132812 C 8.542969 10.816406 9.171875 10.5625 9.253906 10.5625 C 9.332031 10.5625 9.964844 10.816406 10.652344 11.132812 C 11.640625 11.578125 11.921875 11.667969 12.046875 11.566406 C 12.238281 11.40625 12.257812 4.246094 12.066406 4.09375 C 11.996094 4.03125 11.355469 3.726562 10.644531 3.402344 C 9.667969 2.964844 9.292969 2.84375 9.070312 2.882812 L 8.785156 2.945312 L 8.785156 2.296875 C 8.785156 1.726562 8.746094 1.585938 8.480469 1.199219 C 7.921875 0.417969 6.804688 0.03125 5.980469 0.335938 Z M 7.402344 1.015625 C 8.398438 1.511719 8.480469 2.5 7.65625 3.859375 C 7.382812 4.316406 7.039062 4.835938 6.894531 5.007812 L 6.632812 5.320312 L 6.105469 4.53125 C 5.140625 3.097656 4.90625 2.355469 5.21875 1.746094 C 5.65625 0.902344 6.589844 0.589844 7.402344 1.015625 Z M 3.757812 5.128906 L 3.757812 6.703125 L 3.503906 6.703125 C 3.199219 6.703125 2.640625 6.96875 2.640625 7.109375 C 2.640625 7.300781 2.84375 7.300781 3.289062 7.109375 L 3.757812 6.917969 L 3.757812 9.953125 L 2.894531 10.347656 C 1.492188 11 1.625 11.082031 1.625 9.609375 C 1.625 8.90625 1.664062 8.328125 1.714844 8.328125 C 1.890625 8.328125 2.355469 7.605469 2.296875 7.445312 C 2.234375 7.300781 2.183594 7.324219 1.917969 7.578125 L 1.613281 7.859375 L 1.675781 4.449219 L 2.640625 4 C 3.167969 3.769531 3.636719 3.566406 3.6875 3.566406 C 3.726562 3.554688 3.757812 4.265625 3.757812 5.128906 Z M 4.609375 3.695312 C 4.804688 3.777344 5.046875 4 5.191406 4.226562 C 5.3125 4.449219 5.648438 4.925781 5.910156 5.292969 C 6.359375 5.910156 6.398438 6.023438 6.398438 6.550781 L 6.398438 7.121094 L 6.132812 6.917969 C 5.921875 6.753906 5.828125 6.734375 5.71875 6.816406 C 5.605469 6.917969 5.65625 6.996094 5.992188 7.28125 L 6.398438 7.636719 L 6.398438 10.957031 L 5.3125 10.460938 L 4.214844 9.964844 L 4.152344 6.917969 L 4.691406 6.886719 C 5.089844 6.867188 5.230469 6.816406 5.230469 6.703125 C 5.230469 6.589844 5.097656 6.550781 4.691406 6.550781 L 4.164062 6.550781 L 4.164062 5.046875 C 4.164062 4.226562 4.183594 3.554688 4.214844 3.554688 C 4.246094 3.554688 4.429688 3.617188 4.609375 3.695312 Z M 9.039062 6.753906 L 9.039062 9.964844 L 8.359375 10.269531 C 7.972656 10.441406 7.476562 10.664062 7.242188 10.777344 L 6.804688 10.957031 L 6.804688 8.398438 L 7.058594 8.632812 C 7.25 8.816406 7.34375 8.847656 7.433594 8.753906 C 7.515625 8.671875 7.453125 8.53125 7.179688 8.1875 C 6.816406 7.75 6.804688 7.707031 6.804688 6.925781 C 6.804688 6.125 6.804688 6.125 7.292969 5.472656 C 7.554688 5.117188 7.921875 4.589844 8.105469 4.304688 C 8.390625 3.859375 8.703125 3.585938 8.96875 3.566406 C 9.007812 3.554688 9.039062 4.996094 9.039062 6.753906 Z M 10.714844 4.074219 L 11.578125 4.46875 L 11.578125 5.320312 C 11.578125 6.132812 11.566406 6.183594 11.355469 6.214844 C 11.222656 6.234375 11.109375 6.328125 11.089844 6.4375 C 11.058594 6.589844 11.101562 6.621094 11.3125 6.582031 L 11.578125 6.53125 L 11.578125 8.695312 C 11.578125 9.890625 11.558594 10.867188 11.539062 10.867188 C 11.507812 10.867188 11.039062 10.664062 10.492188 10.421875 L 9.496094 9.964844 L 9.464844 9.546875 C 9.433594 9.203125 9.484375 9.070312 9.738281 8.773438 C 9.914062 8.582031 10.054688 8.359375 10.054688 8.277344 C 10.054688 8.042969 9.789062 8.09375 9.617188 8.347656 C 9.464844 8.5625 9.457031 8.378906 9.457031 6.0625 C 9.445312 3.148438 9.28125 3.402344 10.714844 4.074219 Z M 10.714844 4.074219 "/>
      <path style=" stroke:none;fill-rule:nonzero;fill:rgb(0%,0%,0%);fill-opacity:1;"
            d="M 6.246094 1.644531 C 5.726562 1.941406 5.636719 2.550781 6.03125 3.007812 C 6.550781 3.617188 7.515625 3.21875 7.515625 2.417969 C 7.515625 1.714844 6.835938 1.308594 6.246094 1.644531 Z M 7.046875 2.121094 C 7.402344 2.519531 6.886719 3.109375 6.410156 2.855469 C 6.175781 2.722656 6.113281 2.253906 6.316406 2.050781 C 6.5 1.867188 6.855469 1.910156 7.046875 2.121094 Z M 7.046875 2.121094 "/>
      <path style=" stroke:none;fill-rule:nonzero;fill:rgb(0%,0%,0%);fill-opacity:1;"
            d="M 7.820312 9.039062 C 7.820312 9.191406 7.921875 9.242188 8.289062 9.304688 C 8.582031 9.34375 8.796875 9.324219 8.867188 9.253906 C 9.027344 9.089844 8.855469 8.96875 8.308594 8.898438 C 7.871094 8.847656 7.820312 8.855469 7.820312 9.039062 Z M 7.820312 9.039062 "/>
      <path style=" stroke:none;fill-rule:nonzero;fill:rgb(0%,0%,0%);fill-opacity:1;"
            d="M 10.289062 7.179688 C 10.085938 7.554688 10.074219 7.820312 10.257812 7.820312 C 10.347656 7.820312 10.867188 7.007812 10.867188 6.875 C 10.867188 6.835938 10.785156 6.804688 10.683594 6.804688 C 10.574219 6.804688 10.410156 6.957031 10.289062 7.179688 Z M 10.289062 7.179688 "/>
      <path style=" stroke:none;fill-rule:nonzero;fill:rgb(96.470588%,72.941176%,69.019608%);fill-opacity:1;"
            d="M 6.25 4.730469 C 5.8125 4.070312 5.722656 3.925781 5.566406 3.648438 C 5.109375 2.832031 5 2.296875 5.1875 1.839844 C 5.292969 1.589844 5.546875 1.277344 5.773438 1.121094 C 5.917969 1.019531 6.125 0.921875 6.285156 0.878906 C 6.390625 0.851562 6.449219 0.847656 6.65625 0.847656 C 6.878906 0.84375 6.914062 0.847656 7.046875 0.886719 C 7.414062 0.988281 7.789062 1.230469 7.96875 1.484375 C 8.320312 1.976562 8.285156 2.613281 7.863281 3.460938 C 7.707031 3.777344 7.328125 4.390625 7.039062 4.796875 C 6.9375 4.941406 6.648438 5.300781 6.632812 5.300781 C 6.628906 5.300781 6.457031 5.042969 6.25 4.730469 Z M 6.824219 3.289062 C 6.996094 3.253906 7.136719 3.175781 7.261719 3.046875 C 7.441406 2.867188 7.515625 2.683594 7.515625 2.421875 C 7.515625 2.140625 7.441406 1.949219 7.265625 1.769531 C 7.074219 1.582031 6.886719 1.507812 6.632812 1.523438 C 6.402344 1.539062 6.203125 1.628906 6.027344 1.808594 C 5.707031 2.128906 5.699219 2.613281 6.007812 2.988281 C 6.222656 3.246094 6.515625 3.355469 6.824219 3.289062 Z M 6.824219 3.289062 "/>
      <path style=" stroke:none;fill-rule:nonzero;fill:rgb(96.470588%,90.980392%,60.392157%);fill-opacity:1;"
            d="M 1.722656 10.742188 C 1.644531 10.667969 1.640625 10.632812 1.632812 9.992188 C 1.625 9.253906 1.652344 8.589844 1.699219 8.382812 C 1.703125 8.355469 1.722656 8.339844 1.753906 8.324219 C 1.816406 8.304688 1.96875 8.144531 2.070312 7.996094 C 2.171875 7.851562 2.277344 7.640625 2.300781 7.542969 C 2.316406 7.476562 2.3125 7.460938 2.289062 7.417969 C 2.222656 7.304688 2.179688 7.324219 1.863281 7.613281 C 1.734375 7.738281 1.625 7.835938 1.625 7.832031 C 1.625 7.828125 1.636719 7.070312 1.652344 6.148438 C 1.671875 5.074219 1.6875 4.464844 1.699219 4.457031 C 1.75 4.402344 3.601562 3.578125 3.671875 3.578125 C 3.722656 3.578125 3.738281 3.921875 3.746094 5.359375 L 3.753906 6.6875 L 3.554688 6.695312 C 3.402344 6.703125 3.328125 6.710938 3.222656 6.742188 C 3.046875 6.796875 2.78125 6.929688 2.703125 7.003906 C 2.648438 7.054688 2.636719 7.074219 2.636719 7.125 C 2.636719 7.214844 2.6875 7.257812 2.796875 7.257812 C 2.921875 7.257812 3.023438 7.226562 3.335938 7.097656 C 3.484375 7.039062 3.640625 6.972656 3.679688 6.957031 L 3.75 6.929688 L 3.75 9.949219 L 3.414062 10.101562 C 3.226562 10.1875 2.890625 10.339844 2.667969 10.445312 C 2.132812 10.699219 1.957031 10.769531 1.851562 10.78125 C 1.769531 10.789062 1.761719 10.785156 1.722656 10.742188 Z M 1.722656 10.742188 "/>
      <path style=" stroke:none;fill-rule:nonzero;fill:rgb(96.470588%,90.980392%,60.392157%);fill-opacity:1;"
            d="M 6.136719 10.832031 C 6.003906 10.765625 5.519531 10.546875 5.0625 10.339844 C 4.605469 10.132812 4.230469 9.960938 4.226562 9.960938 C 4.21875 9.957031 4.164062 7.144531 4.167969 7.027344 L 4.171875 6.921875 L 4.492188 6.90625 C 5.105469 6.871094 5.234375 6.835938 5.234375 6.699219 C 5.234375 6.636719 5.191406 6.597656 5.109375 6.574219 C 5.070312 6.5625 4.890625 6.554688 4.605469 6.546875 L 4.160156 6.542969 L 4.171875 5.277344 C 4.179688 4.15625 4.195312 3.589844 4.214844 3.566406 C 4.226562 3.558594 4.480469 3.648438 4.601562 3.707031 C 4.660156 3.730469 4.738281 3.777344 4.78125 3.808594 C 4.898438 3.894531 5.085938 4.089844 5.160156 4.203125 C 5.335938 4.480469 5.605469 4.878906 5.820312 5.183594 C 6.207031 5.722656 6.285156 5.855469 6.347656 6.058594 C 6.375 6.15625 6.378906 6.207031 6.386719 6.632812 C 6.390625 7.007812 6.386719 7.09375 6.371094 7.085938 C 6.363281 7.078125 6.285156 7.019531 6.203125 6.957031 C 6.003906 6.808594 5.929688 6.765625 5.839844 6.765625 C 5.78125 6.765625 5.757812 6.773438 5.714844 6.8125 C 5.65625 6.863281 5.648438 6.917969 5.683594 6.984375 C 5.710938 7.039062 5.851562 7.171875 6.148438 7.433594 L 6.390625 7.644531 L 6.390625 9.296875 C 6.390625 10.203125 6.386719 10.945312 6.386719 10.945312 C 6.382812 10.945312 6.269531 10.894531 6.136719 10.832031 Z M 6.136719 10.832031 "/>
      <path style=" stroke:none;fill-rule:nonzero;fill:rgb(96.470588%,90.980392%,60.392157%);fill-opacity:1;"
            d="M 6.820312 9.683594 L 6.820312 8.425781 L 6.980469 8.574219 C 7.25 8.820312 7.335938 8.859375 7.429688 8.765625 C 7.46875 8.726562 7.472656 8.714844 7.46875 8.648438 C 7.457031 8.542969 7.382812 8.429688 7.046875 8.003906 C 7.003906 7.949219 6.941406 7.855469 6.914062 7.796875 C 6.832031 7.628906 6.820312 7.53125 6.820312 6.929688 C 6.820312 6.128906 6.816406 6.132812 7.253906 5.542969 C 7.570312 5.109375 7.726562 4.886719 7.996094 4.484375 C 8.277344 4.0625 8.335938 3.992188 8.503906 3.828125 C 8.644531 3.695312 8.796875 3.601562 8.90625 3.585938 L 8.964844 3.578125 L 8.972656 3.632812 C 9.003906 3.824219 9.015625 4.601562 9.023438 7.160156 L 9.027344 9.960938 L 8.644531 10.128906 C 8.4375 10.222656 8.039062 10.402344 7.761719 10.527344 C 7.484375 10.65625 7.15625 10.800781 7.039062 10.851562 L 6.820312 10.945312 Z M 8.734375 9.316406 C 8.828125 9.296875 8.878906 9.265625 8.914062 9.195312 C 8.953125 9.113281 8.921875 9.066406 8.800781 9.007812 C 8.597656 8.910156 7.976562 8.828125 7.875 8.882812 C 7.8125 8.917969 7.792969 9.035156 7.832031 9.132812 C 7.863281 9.199219 7.960938 9.246094 8.160156 9.285156 C 8.394531 9.332031 8.589844 9.34375 8.734375 9.316406 Z M 8.734375 9.316406 "/>
      <path style=" stroke:none;fill-rule:nonzero;fill:rgb(96.470588%,90.980392%,60.392157%);fill-opacity:1;"
            d="M 11.503906 10.847656 C 11.40625 10.816406 10.523438 10.425781 9.730469 10.0625 L 9.507812 9.960938 L 9.496094 9.871094 C 9.488281 9.824219 9.484375 9.648438 9.480469 9.488281 L 9.480469 9.191406 L 9.527344 9.09375 C 9.550781 9.042969 9.632812 8.925781 9.703125 8.835938 C 9.953125 8.53125 10.066406 8.355469 10.066406 8.265625 C 10.066406 8.210938 10.015625 8.136719 9.96875 8.125 C 9.875 8.101562 9.738281 8.179688 9.632812 8.316406 C 9.597656 8.359375 9.558594 8.398438 9.550781 8.398438 C 9.476562 8.398438 9.46875 8.121094 9.464844 5.964844 C 9.464844 3.910156 9.464844 3.917969 9.539062 3.765625 C 9.582031 3.675781 9.621094 3.648438 9.707031 3.652344 C 9.808594 3.652344 9.894531 3.6875 10.347656 3.90625 C 10.578125 4.015625 10.949219 4.191406 11.171875 4.292969 L 11.578125 4.476562 L 11.574219 5.003906 C 11.574219 5.59375 11.558594 6.011719 11.53125 6.078125 C 11.503906 6.152344 11.460938 6.1875 11.371094 6.203125 C 11.214844 6.238281 11.121094 6.308594 11.089844 6.421875 C 11.054688 6.546875 11.082031 6.605469 11.179688 6.605469 C 11.210938 6.605469 11.304688 6.589844 11.386719 6.574219 C 11.472656 6.558594 11.546875 6.542969 11.558594 6.542969 C 11.574219 6.542969 11.578125 6.761719 11.578125 7.578125 C 11.574219 8.800781 11.550781 10.742188 11.535156 10.808594 C 11.527344 10.839844 11.519531 10.851562 11.503906 10.847656 Z M 10.304688 7.800781 C 10.433594 7.691406 10.820312 7.085938 10.863281 6.917969 C 10.875 6.878906 10.875 6.863281 10.851562 6.839844 C 10.8125 6.804688 10.699219 6.789062 10.628906 6.808594 C 10.367188 6.886719 10.015625 7.605469 10.152344 7.777344 C 10.171875 7.800781 10.199219 7.820312 10.21875 7.824219 C 10.234375 7.828125 10.253906 7.832031 10.257812 7.832031 C 10.261719 7.832031 10.28125 7.820312 10.304688 7.800781 Z M 10.304688 7.800781 "/>
      <path style=" stroke:none;fill-rule:nonzero;fill:rgb(0%,0%,0%);fill-opacity:1;"
            d="M 5.878906 11.351562 C 4.648438 10.789062 4.105469 10.5625 3.976562 10.5625 C 3.886719 10.5625 3.457031 10.730469 2.652344 11.089844 C 1.777344 11.476562 1.449219 11.597656 1.28125 11.597656 C 1.105469 11.597656 1.082031 11.511719 1.050781 10.761719 C 1.035156 10.335938 1.039062 8.152344 1.0625 5.292969 L 1.070312 4.121094 L 1.464844 3.9375 C 2.304688 3.542969 3.226562 3.136719 3.550781 3.011719 C 3.960938 2.855469 4.070312 2.851562 4.371094 2.964844 C 4.472656 3 4.558594 3.03125 4.5625 3.027344 C 4.566406 3.023438 4.550781 2.875 4.527344 2.695312 C 4.457031 2.132812 4.480469 1.992188 4.703125 1.527344 C 4.964844 0.992188 5.234375 0.703125 5.691406 0.472656 C 5.898438 0.371094 6.066406 0.308594 6.242188 0.273438 C 6.378906 0.246094 6.429688 0.242188 6.65625 0.25 C 6.9375 0.257812 7.0625 0.28125 7.308594 0.363281 C 7.800781 0.527344 8.242188 0.859375 8.511719 1.265625 C 8.644531 1.464844 8.6875 1.558594 8.734375 1.722656 C 8.761719 1.828125 8.765625 1.882812 8.773438 2.398438 C 8.777344 2.851562 8.78125 2.957031 8.796875 2.953125 C 8.808594 2.949219 8.890625 2.929688 8.984375 2.910156 C 9.132812 2.882812 9.160156 2.878906 9.265625 2.894531 C 9.46875 2.925781 9.753906 3.027344 10.257812 3.242188 C 10.933594 3.53125 12.039062 4.0625 12.066406 4.109375 C 12.128906 4.226562 12.164062 4.960938 12.183594 6.484375 C 12.214844 8.714844 12.148438 11.285156 12.054688 11.527344 C 11.996094 11.679688 11.714844 11.597656 10.695312 11.140625 C 9.886719 10.777344 9.351562 10.5625 9.261719 10.5625 C 9.128906 10.5625 8.707031 10.734375 7.394531 11.332031 C 6.96875 11.527344 6.613281 11.6875 6.609375 11.6875 C 6.605469 11.6875 6.277344 11.539062 5.878906 11.351562 Z M 6.402344 9.296875 L 6.402344 7.628906 L 6.175781 7.433594 C 5.691406 7.007812 5.640625 6.949219 5.691406 6.855469 C 5.714844 6.816406 5.785156 6.78125 5.847656 6.78125 C 5.921875 6.78125 5.992188 6.820312 6.203125 6.984375 C 6.304688 7.058594 6.390625 7.121094 6.398438 7.121094 C 6.402344 7.121094 6.402344 6.90625 6.398438 6.644531 C 6.390625 6.125 6.386719 6.070312 6.300781 5.886719 C 6.242188 5.753906 6.140625 5.597656 5.84375 5.183594 C 5.703125 4.984375 5.507812 4.699219 5.414062 4.558594 C 5.320312 4.414062 5.207031 4.246094 5.164062 4.179688 C 5.074219 4.042969 4.886719 3.855469 4.75 3.765625 C 4.660156 3.707031 4.332031 3.570312 4.246094 3.554688 L 4.199219 3.546875 L 4.1875 3.625 C 4.171875 3.75 4.152344 5.019531 4.152344 5.828125 L 4.152344 6.554688 L 4.597656 6.5625 C 4.972656 6.566406 5.058594 6.574219 5.113281 6.59375 C 5.191406 6.625 5.21875 6.652344 5.21875 6.707031 C 5.21875 6.820312 5.066406 6.859375 4.523438 6.886719 C 4.335938 6.898438 4.171875 6.910156 4.164062 6.917969 C 4.144531 6.929688 4.199219 9.949219 4.21875 9.96875 C 4.226562 9.976562 4.5625 10.132812 4.964844 10.316406 C 5.371094 10.496094 5.851562 10.71875 6.039062 10.804688 C 6.226562 10.890625 6.386719 10.960938 6.390625 10.960938 C 6.398438 10.960938 6.402344 10.210938 6.402344 9.296875 Z M 7.078125 10.851562 C 7.199219 10.800781 7.476562 10.675781 7.691406 10.578125 C 7.910156 10.480469 8.300781 10.304688 8.558594 10.1875 L 9.035156 9.972656 L 9.035156 7.242188 C 9.035156 4.667969 9.023438 3.78125 8.988281 3.609375 C 8.980469 3.570312 8.972656 3.566406 8.933594 3.566406 C 8.824219 3.566406 8.648438 3.667969 8.476562 3.828125 C 8.335938 3.960938 8.257812 4.058594 7.972656 4.488281 C 7.746094 4.820312 7.539062 5.117188 7.121094 5.691406 C 6.960938 5.910156 6.878906 6.0625 6.839844 6.203125 C 6.8125 6.289062 6.8125 6.363281 6.8125 6.929688 C 6.8125 7.746094 6.808594 7.738281 7.117188 8.125 C 7.453125 8.546875 7.511719 8.671875 7.410156 8.757812 C 7.386719 8.78125 7.351562 8.796875 7.335938 8.796875 C 7.28125 8.796875 7.191406 8.738281 7.035156 8.59375 C 6.945312 8.515625 6.859375 8.4375 6.839844 8.421875 L 6.804688 8.394531 L 6.804688 9.679688 C 6.804688 10.894531 6.804688 10.964844 6.828125 10.957031 C 6.84375 10.949219 6.957031 10.90625 7.078125 10.851562 Z M 11.554688 10.800781 C 11.566406 10.703125 11.589844 8.753906 11.589844 7.546875 L 11.589844 6.527344 L 11.542969 6.53125 C 11.515625 6.535156 11.425781 6.550781 11.339844 6.566406 C 11.113281 6.605469 11.074219 6.585938 11.09375 6.453125 C 11.101562 6.402344 11.121094 6.371094 11.175781 6.320312 C 11.242188 6.257812 11.273438 6.242188 11.417969 6.210938 C 11.441406 6.207031 11.480469 6.183594 11.503906 6.160156 C 11.574219 6.09375 11.582031 5.984375 11.582031 5.179688 L 11.585938 4.460938 L 11.140625 4.257812 C 10.894531 4.144531 10.53125 3.972656 10.332031 3.878906 C 9.917969 3.675781 9.820312 3.640625 9.699219 3.640625 C 9.625 3.640625 9.613281 3.644531 9.566406 3.6875 C 9.507812 3.746094 9.476562 3.84375 9.457031 4.039062 C 9.4375 4.214844 9.4375 6.523438 9.457031 7.492188 C 9.46875 8.195312 9.484375 8.371094 9.527344 8.414062 C 9.546875 8.433594 9.558594 8.421875 9.652344 8.316406 C 9.753906 8.207031 9.867188 8.132812 9.933594 8.128906 C 9.976562 8.128906 10.035156 8.1875 10.042969 8.242188 C 10.058594 8.324219 9.933594 8.539062 9.714844 8.789062 C 9.601562 8.925781 9.523438 9.046875 9.488281 9.152344 C 9.457031 9.246094 9.453125 9.265625 9.464844 9.53125 C 9.46875 9.6875 9.480469 9.847656 9.484375 9.894531 L 9.496094 9.972656 L 9.796875 10.113281 C 10.472656 10.421875 10.714844 10.53125 11.101562 10.699219 C 11.328125 10.792969 11.519531 10.871094 11.527344 10.871094 C 11.535156 10.871094 11.546875 10.839844 11.554688 10.800781 Z M 1.976562 10.769531 C 2.085938 10.734375 2.234375 10.667969 2.773438 10.417969 C 2.980469 10.320312 3.289062 10.179688 3.457031 10.101562 L 3.765625 9.960938 L 3.765625 8.4375 C 3.765625 7.574219 3.757812 6.914062 3.753906 6.914062 C 3.746094 6.914062 3.601562 6.972656 3.433594 7.039062 C 3.039062 7.203125 2.964844 7.226562 2.835938 7.238281 C 2.738281 7.246094 2.726562 7.242188 2.691406 7.207031 C 2.613281 7.128906 2.648438 7.046875 2.804688 6.949219 C 3.050781 6.792969 3.339844 6.707031 3.621094 6.707031 L 3.769531 6.707031 L 3.761719 5.371094 C 3.753906 4.179688 3.742188 3.742188 3.710938 3.605469 C 3.699219 3.550781 3.671875 3.554688 3.507812 3.617188 C 3.144531 3.761719 1.71875 4.40625 1.683594 4.441406 C 1.667969 4.453125 1.597656 7.84375 1.609375 7.863281 C 1.617188 7.867188 1.703125 7.792969 1.933594 7.578125 C 2.191406 7.339844 2.226562 7.324219 2.273438 7.429688 C 2.296875 7.476562 2.296875 7.484375 2.269531 7.578125 C 2.195312 7.824219 1.90625 8.226562 1.746094 8.308594 C 1.710938 8.328125 1.691406 8.351562 1.683594 8.378906 C 1.636719 8.59375 1.613281 9.253906 1.621094 10 C 1.625 10.644531 1.628906 10.683594 1.703125 10.757812 C 1.757812 10.808594 1.835938 10.8125 1.976562 10.769531 Z M 6.777344 5.164062 C 7.011719 4.882812 7.171875 4.652344 7.511719 4.113281 C 7.898438 3.496094 8.089844 3.078125 8.183594 2.644531 C 8.230469 2.429688 8.230469 2.070312 8.183594 1.898438 C 8.109375 1.621094 7.941406 1.371094 7.710938 1.195312 C 6.871094 0.5625 5.8125 0.75 5.277344 1.628906 C 4.925781 2.203125 5.042969 2.816406 5.710938 3.9375 C 5.832031 4.132812 6.621094 5.328125 6.632812 5.328125 C 6.632812 5.328125 6.699219 5.253906 6.777344 5.164062 Z M 6.777344 5.164062 "/>
      <path style=" stroke:none;fill-rule:nonzero;fill:rgb(47.058824%,21.568627%,25.490196%);fill-opacity:1;"
            d="M 4.554688 3.019531 L 4.960938 3.953125 "/>
      <path style=" stroke:none;fill-rule:nonzero;fill:rgb(47.058824%,21.568627%,25.490196%);fill-opacity:1;"
            d="M 4.839844 3.300781 L 5.109375 3.367188 "/>
      <path style=" stroke:none;fill-rule:nonzero;fill:rgb(47.058824%,21.568627%,25.490196%);fill-opacity:1;"
            d="M 4.945312 3.140625 L 4.566406 3.128906 "/>
   </g>
</svg>
