<?xml version="1.0" encoding="UTF-8"?>
<svg xmlns="http://www.w3.org/2000/svg" width="16px" height="16px" viewBox="0 0 16 16" version="1.1">
   <g id="surface1">
      <path style=" stroke:none;fill-rule:nonzero;fill:rgb(0%,0%,0%);fill-opacity:1;"
            d="M 7.363281 0.414062 C 6.601562 0.699219 6.148438 1.101562 5.800781 1.824219 C 5.523438 2.386719 5.476562 2.613281 5.539062 3.113281 L 5.613281 3.726562 L 5.25 3.585938 C 4.9375 3.476562 4.738281 3.523438 3.664062 3.988281 C 2.988281 4.289062 2.1875 4.648438 1.875 4.800781 L 1.3125 5.0625 L 1.273438 9.574219 C 1.25 13.425781 1.273438 14.113281 1.425781 14.25 C 1.574219 14.363281 1.914062 14.261719 3.175781 13.699219 C 4.023438 13.3125 4.800781 13 4.898438 13 C 5 13 5.773438 13.3125 6.613281 13.699219 L 8.136719 14.398438 L 9.675781 13.699219 C 10.511719 13.3125 11.289062 13 11.386719 13 C 11.488281 13 12.261719 13.3125 13.113281 13.699219 C 14.324219 14.25 14.675781 14.363281 14.824219 14.238281 C 15.0625 14.039062 15.085938 5.226562 14.851562 5.039062 C 14.761719 4.960938 13.976562 4.585938 13.101562 4.1875 C 11.898438 3.648438 11.4375 3.5 11.164062 3.550781 L 10.8125 3.625 L 10.8125 2.824219 C 10.8125 2.125 10.761719 1.949219 10.4375 1.476562 C 9.75 0.511719 8.375 0.0390625 7.363281 0.414062 Z M 9.113281 1.25 C 10.335938 1.863281 10.4375 3.074219 9.425781 4.75 C 9.085938 5.3125 8.664062 5.949219 8.488281 6.164062 L 8.164062 6.550781 L 7.511719 5.574219 C 6.324219 3.8125 6.039062 2.898438 6.425781 2.148438 C 6.960938 1.113281 8.113281 0.726562 9.113281 1.25 Z M 4.625 6.3125 L 4.625 8.25 L 4.3125 8.25 C 3.9375 8.25 3.25 8.574219 3.25 8.75 C 3.25 8.988281 3.5 8.988281 4.050781 8.75 L 4.625 8.511719 L 4.625 12.25 L 3.5625 12.738281 C 1.835938 13.539062 2 13.636719 2 11.824219 C 2 10.960938 2.050781 10.25 2.113281 10.25 C 2.324219 10.25 2.898438 9.363281 2.824219 9.164062 C 2.75 8.988281 2.6875 9.011719 2.363281 9.324219 L 1.988281 9.675781 L 2.0625 5.476562 L 3.25 4.925781 C 3.898438 4.636719 4.476562 4.386719 4.539062 4.386719 C 4.585938 4.375 4.625 5.25 4.625 6.3125 Z M 5.675781 4.550781 C 5.914062 4.648438 6.210938 4.925781 6.386719 5.199219 C 6.539062 5.476562 6.949219 6.0625 7.273438 6.511719 C 7.824219 7.273438 7.875 7.414062 7.875 8.0625 L 7.875 8.761719 L 7.550781 8.511719 C 7.289062 8.3125 7.175781 8.289062 7.039062 8.386719 C 6.898438 8.511719 6.960938 8.613281 7.375 8.960938 L 7.875 9.398438 L 7.875 13.488281 L 6.539062 12.875 L 5.1875 12.261719 L 5.113281 8.511719 L 5.773438 8.476562 C 6.261719 8.449219 6.4375 8.386719 6.4375 8.25 C 6.4375 8.113281 6.273438 8.0625 5.773438 8.0625 L 5.125 8.0625 L 5.125 6.210938 C 5.125 5.199219 5.148438 4.375 5.1875 4.375 C 5.226562 4.375 5.449219 4.449219 5.675781 4.550781 Z M 11.125 8.3125 L 11.125 12.261719 L 10.289062 12.636719 C 9.8125 12.851562 9.199219 13.125 8.914062 13.261719 L 8.375 13.488281 L 8.375 10.335938 L 8.6875 10.625 C 8.925781 10.851562 9.039062 10.886719 9.148438 10.773438 C 9.25 10.675781 9.175781 10.5 8.835938 10.074219 C 8.386719 9.539062 8.375 9.488281 8.375 8.523438 C 8.375 7.539062 8.375 7.539062 8.976562 6.738281 C 9.300781 6.300781 9.75 5.648438 9.976562 5.300781 C 10.324219 4.75 10.710938 4.414062 11.039062 4.386719 C 11.085938 4.375 11.125 6.148438 11.125 8.3125 Z M 13.1875 5.011719 L 14.25 5.5 L 14.25 6.550781 C 14.25 7.550781 14.238281 7.613281 13.976562 7.648438 C 13.8125 7.675781 13.675781 7.789062 13.648438 7.925781 C 13.613281 8.113281 13.664062 8.148438 13.925781 8.101562 L 14.25 8.039062 L 14.25 10.699219 C 14.25 12.175781 14.226562 13.375 14.199219 13.375 C 14.164062 13.375 13.585938 13.125 12.914062 12.824219 L 11.6875 12.261719 L 11.648438 11.75 C 11.613281 11.324219 11.675781 11.164062 11.988281 10.800781 C 12.199219 10.5625 12.375 10.289062 12.375 10.1875 C 12.375 9.898438 12.050781 9.960938 11.835938 10.273438 C 11.648438 10.539062 11.636719 10.3125 11.636719 7.460938 C 11.625 3.875 11.425781 4.1875 13.1875 5.011719 Z M 13.1875 5.011719 "/>
      <path style=" stroke:none;fill-rule:nonzero;fill:rgb(0%,0%,0%);fill-opacity:1;"
            d="M 7.6875 2.023438 C 7.050781 2.386719 6.9375 3.136719 7.425781 3.699219 C 8.0625 4.449219 9.25 3.960938 9.25 2.976562 C 9.25 2.113281 8.414062 1.613281 7.6875 2.023438 Z M 8.675781 2.613281 C 9.113281 3.101562 8.476562 3.824219 7.886719 3.511719 C 7.601562 3.351562 7.523438 2.773438 7.773438 2.523438 C 8 2.300781 8.4375 2.351562 8.675781 2.613281 Z M 8.675781 2.613281 "/>
      <path style=" stroke:none;fill-rule:nonzero;fill:rgb(0%,0%,0%);fill-opacity:1;"
            d="M 9.625 11.125 C 9.625 11.3125 9.75 11.375 10.199219 11.449219 C 10.5625 11.5 10.824219 11.476562 10.914062 11.386719 C 11.113281 11.1875 10.898438 11.039062 10.226562 10.949219 C 9.6875 10.886719 9.625 10.898438 9.625 11.125 Z M 9.625 11.125 "/>
      <path style=" stroke:none;fill-rule:nonzero;fill:rgb(0%,0%,0%);fill-opacity:1;"
            d="M 12.664062 8.835938 C 12.414062 9.300781 12.398438 9.625 12.625 9.625 C 12.738281 9.625 13.375 8.625 13.375 8.460938 C 13.375 8.414062 13.273438 8.375 13.148438 8.375 C 13.011719 8.375 12.8125 8.5625 12.664062 8.835938 Z M 12.664062 8.835938 "/>
      <path style=" stroke:none;fill-rule:nonzero;fill:rgb(96.470588%,72.941176%,69.019608%);fill-opacity:1;"
            d="M 7.691406 5.824219 C 7.15625 5.011719 7.042969 4.832031 6.851562 4.488281 C 6.289062 3.484375 6.152344 2.828125 6.386719 2.265625 C 6.515625 1.957031 6.828125 1.570312 7.109375 1.378906 C 7.285156 1.253906 7.539062 1.136719 7.734375 1.082031 C 7.867188 1.046875 7.9375 1.042969 8.191406 1.039062 C 8.464844 1.039062 8.507812 1.046875 8.675781 1.089844 C 9.121094 1.214844 9.585938 1.515625 9.808594 1.824219 C 10.238281 2.429688 10.199219 3.21875 9.679688 4.261719 C 9.484375 4.648438 9.019531 5.402344 8.664062 5.90625 C 8.535156 6.082031 8.179688 6.523438 8.164062 6.523438 C 8.15625 6.523438 7.945312 6.207031 7.691406 5.824219 Z M 8.402344 4.050781 C 8.609375 4.007812 8.78125 3.910156 8.941406 3.75 C 9.160156 3.53125 9.25 3.300781 9.25 2.980469 C 9.25 2.636719 9.160156 2.398438 8.941406 2.179688 C 8.707031 1.949219 8.476562 1.859375 8.164062 1.875 C 7.878906 1.890625 7.636719 2.007812 7.417969 2.226562 C 7.023438 2.621094 7.015625 3.21875 7.394531 3.679688 C 7.660156 3.996094 8.019531 4.128906 8.402344 4.050781 Z M 8.402344 4.050781 "/>
      <path style=" stroke:none;fill-rule:nonzero;fill:rgb(96.470588%,90.980392%,60.392157%);fill-opacity:1;"
            d="M 2.117188 13.222656 C 2.023438 13.128906 2.019531 13.085938 2.011719 12.296875 C 2.003906 11.390625 2.035156 10.574219 2.089844 10.316406 C 2.097656 10.285156 2.117188 10.261719 2.160156 10.246094 C 2.238281 10.21875 2.421875 10.027344 2.550781 9.839844 C 2.671875 9.664062 2.800781 9.402344 2.828125 9.28125 C 2.847656 9.199219 2.847656 9.183594 2.816406 9.128906 C 2.734375 8.988281 2.679688 9.011719 2.296875 9.371094 C 2.136719 9.523438 2 9.640625 2 9.640625 C 2 9.636719 2.011719 8.703125 2.035156 7.566406 C 2.058594 6.246094 2.078125 5.496094 2.089844 5.484375 C 2.15625 5.417969 4.433594 4.40625 4.515625 4.40625 C 4.582031 4.40625 4.597656 4.828125 4.609375 6.597656 L 4.621094 8.230469 L 4.375 8.242188 C 4.1875 8.25 4.097656 8.261719 3.96875 8.300781 C 3.75 8.363281 3.421875 8.527344 3.324219 8.621094 C 3.257812 8.683594 3.246094 8.707031 3.246094 8.769531 C 3.246094 8.878906 3.308594 8.929688 3.445312 8.929688 C 3.59375 8.929688 3.71875 8.894531 4.105469 8.738281 C 4.289062 8.660156 4.480469 8.582031 4.527344 8.566406 L 4.617188 8.53125 L 4.617188 12.242188 L 4.199219 12.433594 C 3.972656 12.535156 3.558594 12.726562 3.285156 12.859375 C 2.625 13.167969 2.40625 13.257812 2.277344 13.269531 C 2.179688 13.277344 2.167969 13.273438 2.117188 13.222656 Z M 2.117188 13.222656 "/>
      <path style=" stroke:none;fill-rule:nonzero;fill:rgb(96.470588%,90.980392%,60.392157%);fill-opacity:1;"
            d="M 7.554688 13.328125 C 7.386719 13.253906 6.792969 12.980469 6.230469 12.726562 C 5.667969 12.46875 5.207031 12.261719 5.203125 12.257812 C 5.195312 12.253906 5.125 8.792969 5.128906 8.648438 L 5.136719 8.519531 L 5.527344 8.5 C 6.28125 8.457031 6.441406 8.414062 6.441406 8.242188 C 6.441406 8.171875 6.390625 8.121094 6.289062 8.089844 C 6.238281 8.078125 6.019531 8.066406 5.667969 8.058594 L 5.121094 8.050781 L 5.132812 6.496094 C 5.144531 5.117188 5.164062 4.417969 5.191406 4.390625 C 5.203125 4.378906 5.515625 4.488281 5.664062 4.558594 C 5.734375 4.59375 5.832031 4.648438 5.882812 4.6875 C 6.03125 4.792969 6.261719 5.035156 6.347656 5.171875 C 6.566406 5.511719 6.898438 6.003906 7.164062 6.378906 C 7.640625 7.042969 7.734375 7.203125 7.8125 7.457031 C 7.847656 7.578125 7.851562 7.640625 7.859375 8.160156 C 7.863281 8.625 7.863281 8.730469 7.84375 8.71875 C 7.832031 8.710938 7.738281 8.640625 7.632812 8.5625 C 7.390625 8.378906 7.296875 8.328125 7.1875 8.328125 C 7.113281 8.328125 7.085938 8.339844 7.035156 8.386719 C 6.960938 8.449219 6.949219 8.511719 6.996094 8.597656 C 7.027344 8.664062 7.199219 8.828125 7.566406 9.148438 L 7.863281 9.40625 L 7.863281 11.441406 C 7.863281 12.558594 7.859375 13.472656 7.859375 13.472656 C 7.855469 13.472656 7.71875 13.40625 7.554688 13.328125 Z M 7.554688 13.328125 "/>
      <path style=" stroke:none;fill-rule:nonzero;fill:rgb(96.470588%,90.980392%,60.392157%);fill-opacity:1;"
            d="M 8.390625 11.917969 L 8.390625 10.367188 L 8.59375 10.554688 C 8.925781 10.859375 9.03125 10.902344 9.144531 10.789062 C 9.195312 10.738281 9.199219 10.726562 9.191406 10.644531 C 9.179688 10.515625 9.085938 10.375 8.675781 9.851562 C 8.617188 9.78125 8.542969 9.667969 8.507812 9.59375 C 8.40625 9.390625 8.394531 9.269531 8.394531 8.527344 C 8.394531 7.542969 8.390625 7.550781 8.925781 6.820312 C 9.316406 6.289062 9.511719 6.015625 9.84375 5.519531 C 10.191406 5.003906 10.261719 4.910156 10.46875 4.714844 C 10.640625 4.550781 10.828125 4.433594 10.960938 4.414062 L 11.035156 4.402344 L 11.046875 4.472656 C 11.082031 4.707031 11.097656 5.664062 11.105469 8.8125 L 11.113281 12.261719 L 10.640625 12.46875 C 10.382812 12.582031 9.890625 12.804688 9.550781 12.960938 C 9.210938 13.113281 8.808594 13.292969 8.660156 13.355469 L 8.390625 13.46875 Z M 10.746094 11.464844 C 10.867188 11.445312 10.925781 11.402344 10.96875 11.316406 C 11.019531 11.21875 10.980469 11.15625 10.832031 11.085938 C 10.582031 10.96875 9.816406 10.867188 9.691406 10.933594 C 9.613281 10.976562 9.589844 11.117188 9.640625 11.238281 C 9.675781 11.324219 9.796875 11.378906 10.042969 11.429688 C 10.332031 11.484375 10.574219 11.5 10.746094 11.464844 Z M 10.746094 11.464844 "/>
      <path style=" stroke:none;fill-rule:nonzero;fill:rgb(96.470588%,90.980392%,60.392157%);fill-opacity:1;"
            d="M 14.15625 13.351562 C 14.039062 13.3125 12.953125 12.832031 11.976562 12.382812 L 11.703125 12.257812 L 11.6875 12.148438 C 11.679688 12.089844 11.671875 11.875 11.671875 11.675781 L 11.667969 11.3125 L 11.726562 11.191406 C 11.757812 11.128906 11.855469 10.984375 11.945312 10.875 C 12.25 10.5 12.386719 10.28125 12.386719 10.171875 C 12.386719 10.105469 12.324219 10.011719 12.269531 10 C 12.152344 9.96875 11.984375 10.066406 11.855469 10.234375 C 11.8125 10.289062 11.765625 10.335938 11.753906 10.335938 C 11.664062 10.335938 11.652344 9.996094 11.652344 7.34375 C 11.648438 4.8125 11.648438 4.824219 11.738281 4.632812 C 11.792969 4.523438 11.839844 4.492188 11.945312 4.496094 C 12.074219 4.496094 12.175781 4.539062 12.734375 4.804688 C 13.019531 4.945312 13.476562 5.15625 13.75 5.28125 L 14.246094 5.507812 L 14.246094 6.15625 C 14.246094 6.886719 14.226562 7.398438 14.195312 7.480469 C 14.160156 7.570312 14.105469 7.613281 13.996094 7.636719 C 13.800781 7.675781 13.6875 7.765625 13.648438 7.90625 C 13.605469 8.058594 13.640625 8.128906 13.761719 8.128906 C 13.796875 8.128906 13.914062 8.109375 14.015625 8.089844 C 14.117188 8.070312 14.214844 8.054688 14.226562 8.054688 C 14.242188 8.054688 14.25 8.320312 14.246094 9.328125 C 14.246094 10.832031 14.21875 13.222656 14.199219 13.300781 C 14.1875 13.339844 14.175781 13.355469 14.15625 13.351562 Z M 12.683594 9.601562 C 12.839844 9.46875 13.316406 8.71875 13.371094 8.515625 C 13.386719 8.464844 13.382812 8.449219 13.355469 8.421875 C 13.308594 8.375 13.167969 8.355469 13.082031 8.378906 C 12.757812 8.476562 12.328125 9.359375 12.496094 9.574219 C 12.519531 9.601562 12.550781 9.625 12.574219 9.628906 C 12.597656 9.632812 12.621094 9.636719 12.625 9.640625 C 12.628906 9.640625 12.65625 9.625 12.683594 9.601562 Z M 12.683594 9.601562 "/>
      <path style=" stroke:none;fill-rule:nonzero;fill:rgb(0%,0%,0%);fill-opacity:1;"
            d="M 7.234375 13.972656 C 5.722656 13.277344 5.050781 13 4.894531 13 C 4.78125 13 4.253906 13.207031 3.265625 13.648438 C 2.1875 14.125 1.78125 14.277344 1.574219 14.277344 C 1.359375 14.277344 1.332031 14.167969 1.292969 13.246094 C 1.273438 12.71875 1.277344 10.035156 1.308594 6.511719 L 1.320312 5.070312 L 1.804688 4.84375 C 2.835938 4.359375 3.972656 3.859375 4.371094 3.707031 C 4.871094 3.515625 5.011719 3.507812 5.378906 3.648438 C 5.503906 3.695312 5.609375 3.730469 5.613281 3.722656 C 5.617188 3.71875 5.597656 3.535156 5.574219 3.316406 C 5.488281 2.625 5.515625 2.449219 5.789062 1.878906 C 6.109375 1.21875 6.441406 0.863281 7.003906 0.582031 C 7.257812 0.457031 7.464844 0.382812 7.683594 0.335938 C 7.847656 0.300781 7.910156 0.296875 8.191406 0.308594 C 8.535156 0.316406 8.691406 0.34375 8.996094 0.445312 C 9.601562 0.648438 10.144531 1.058594 10.476562 1.558594 C 10.636719 1.804688 10.695312 1.917969 10.75 2.117188 C 10.785156 2.25 10.789062 2.316406 10.796875 2.953125 C 10.800781 3.507812 10.808594 3.640625 10.828125 3.632812 C 10.839844 3.628906 10.941406 3.605469 11.054688 3.582031 C 11.238281 3.546875 11.273438 3.542969 11.402344 3.566406 C 11.652344 3.601562 12.007812 3.726562 12.625 3.992188 C 13.457031 4.347656 14.816406 5 14.847656 5.058594 C 14.925781 5.203125 14.972656 6.105469 14.996094 7.980469 C 15.03125 10.726562 14.949219 13.886719 14.835938 14.191406 C 14.761719 14.375 14.417969 14.273438 13.164062 13.710938 C 12.167969 13.261719 11.511719 13 11.398438 13 C 11.238281 13 10.71875 13.214844 9.101562 13.949219 C 8.574219 14.1875 8.140625 14.386719 8.136719 14.386719 C 8.132812 14.386719 7.726562 14.199219 7.234375 13.972656 Z M 7.882812 11.441406 L 7.882812 9.390625 L 7.601562 9.148438 C 7.003906 8.625 6.945312 8.554688 7.007812 8.4375 C 7.03125 8.386719 7.121094 8.347656 7.195312 8.347656 C 7.289062 8.347656 7.375 8.394531 7.636719 8.59375 C 7.761719 8.6875 7.867188 8.765625 7.875 8.765625 C 7.878906 8.765625 7.882812 8.5 7.875 8.179688 C 7.867188 7.539062 7.859375 7.472656 7.757812 7.246094 C 7.683594 7.082031 7.554688 6.890625 7.195312 6.378906 C 7.019531 6.132812 6.777344 5.785156 6.664062 5.609375 C 6.546875 5.433594 6.410156 5.222656 6.355469 5.144531 C 6.246094 4.976562 6.011719 4.742188 5.847656 4.636719 C 5.734375 4.5625 5.332031 4.390625 5.226562 4.375 L 5.167969 4.367188 L 5.15625 4.464844 C 5.136719 4.613281 5.109375 6.175781 5.109375 7.171875 L 5.109375 8.070312 L 5.660156 8.078125 C 6.121094 8.082031 6.226562 8.089844 6.292969 8.117188 C 6.390625 8.152344 6.421875 8.1875 6.421875 8.257812 C 6.421875 8.394531 6.238281 8.441406 5.570312 8.476562 C 5.335938 8.488281 5.136719 8.503906 5.125 8.511719 C 5.101562 8.527344 5.167969 12.246094 5.195312 12.269531 C 5.203125 12.277344 5.613281 12.46875 6.113281 12.695312 C 6.609375 12.921875 7.203125 13.191406 7.433594 13.296875 C 7.664062 13.402344 7.859375 13.492188 7.867188 13.492188 C 7.875 13.492188 7.882812 12.570312 7.882812 11.441406 Z M 8.710938 13.355469 C 8.863281 13.292969 9.203125 13.140625 9.46875 13.019531 C 9.734375 12.898438 10.214844 12.683594 10.535156 12.539062 L 11.121094 12.277344 L 11.117188 8.910156 C 11.117188 5.742188 11.105469 4.652344 11.0625 4.441406 C 11.054688 4.394531 11.042969 4.386719 10.996094 4.386719 C 10.859375 4.390625 10.644531 4.511719 10.433594 4.710938 C 10.257812 4.878906 10.164062 4.996094 9.8125 5.523438 C 9.535156 5.933594 9.277344 6.300781 8.765625 7.003906 C 8.570312 7.277344 8.464844 7.464844 8.417969 7.636719 C 8.386719 7.742188 8.382812 7.832031 8.382812 8.527344 C 8.382812 9.535156 8.378906 9.523438 8.757812 10 C 9.175781 10.515625 9.246094 10.675781 9.121094 10.78125 C 9.089844 10.804688 9.046875 10.828125 9.027344 10.828125 C 8.960938 10.828125 8.851562 10.753906 8.65625 10.578125 C 8.550781 10.480469 8.441406 10.382812 8.417969 10.367188 L 8.375 10.332031 L 8.375 11.914062 C 8.375 13.410156 8.375 13.492188 8.40625 13.484375 C 8.421875 13.476562 8.5625 13.421875 8.710938 13.355469 Z M 14.21875 13.296875 C 14.238281 13.171875 14.265625 10.773438 14.265625 9.289062 L 14.265625 8.03125 L 14.207031 8.039062 C 14.175781 8.046875 14.0625 8.0625 13.957031 8.082031 C 13.679688 8.132812 13.628906 8.109375 13.65625 7.941406 C 13.664062 7.882812 13.6875 7.84375 13.753906 7.78125 C 13.835938 7.699219 13.878906 7.683594 14.054688 7.644531 C 14.082031 7.636719 14.128906 7.609375 14.15625 7.582031 C 14.242188 7.496094 14.253906 7.367188 14.253906 6.375 L 14.257812 5.492188 L 13.710938 5.242188 C 13.410156 5.101562 12.960938 4.890625 12.714844 4.773438 C 12.207031 4.527344 12.085938 4.480469 11.9375 4.480469 C 11.847656 4.480469 11.832031 4.484375 11.777344 4.539062 C 11.703125 4.613281 11.664062 4.734375 11.640625 4.972656 C 11.617188 5.1875 11.617188 8.027344 11.640625 9.222656 C 11.65625 10.085938 11.671875 10.300781 11.722656 10.351562 C 11.746094 10.378906 11.765625 10.363281 11.882812 10.238281 C 12.007812 10.097656 12.144531 10.007812 12.226562 10.007812 C 12.277344 10.007812 12.347656 10.078125 12.359375 10.140625 C 12.382812 10.246094 12.222656 10.511719 11.957031 10.820312 C 11.816406 10.984375 11.71875 11.132812 11.675781 11.265625 C 11.636719 11.378906 11.636719 11.402344 11.648438 11.730469 C 11.65625 11.921875 11.667969 12.121094 11.671875 12.175781 L 11.683594 12.273438 L 12.058594 12.445312 C 12.890625 12.828125 13.183594 12.960938 13.664062 13.164062 C 13.941406 13.285156 14.175781 13.382812 14.1875 13.382812 C 14.199219 13.382812 14.210938 13.34375 14.21875 13.296875 Z M 2.433594 13.253906 C 2.566406 13.210938 2.75 13.132812 3.410156 12.824219 C 3.667969 12.703125 4.046875 12.527344 4.253906 12.433594 L 4.632812 12.261719 L 4.632812 10.386719 C 4.632812 9.324219 4.628906 8.511719 4.617188 8.511719 C 4.609375 8.511719 4.433594 8.582031 4.226562 8.664062 C 3.742188 8.863281 3.648438 8.894531 3.492188 8.90625 C 3.367188 8.917969 3.355469 8.914062 3.3125 8.871094 C 3.214844 8.773438 3.261719 8.671875 3.453125 8.550781 C 3.757812 8.359375 4.109375 8.253906 4.457031 8.253906 L 4.636719 8.253906 L 4.628906 6.609375 C 4.617188 5.144531 4.605469 4.605469 4.570312 4.4375 C 4.554688 4.371094 4.519531 4.371094 4.316406 4.453125 C 3.871094 4.632812 2.117188 5.421875 2.070312 5.464844 C 2.054688 5.480469 1.96875 9.652344 1.980469 9.675781 C 1.988281 9.683594 2.097656 9.589844 2.378906 9.328125 C 2.695312 9.035156 2.738281 9.015625 2.800781 9.144531 C 2.828125 9.203125 2.828125 9.214844 2.792969 9.328125 C 2.703125 9.628906 2.347656 10.125 2.148438 10.226562 C 2.105469 10.25 2.078125 10.277344 2.070312 10.3125 C 2.015625 10.574219 1.984375 11.386719 1.992188 12.304688 C 2 13.101562 2.007812 13.148438 2.097656 13.238281 C 2.164062 13.304688 2.257812 13.308594 2.433594 13.253906 Z M 8.339844 6.351562 C 8.628906 6.007812 8.828125 5.726562 9.242188 5.0625 C 9.722656 4.300781 9.957031 3.789062 10.070312 3.253906 C 10.128906 2.988281 10.132812 2.546875 10.074219 2.335938 C 9.984375 1.996094 9.773438 1.6875 9.488281 1.472656 C 8.457031 0.695312 7.15625 0.925781 6.496094 2.007812 C 6.0625 2.714844 6.203125 3.464844 7.03125 4.84375 C 7.175781 5.085938 8.148438 6.558594 8.160156 6.558594 C 8.164062 6.558594 8.246094 6.464844 8.339844 6.351562 Z M 8.339844 6.351562 "/>
      <path style=" stroke:none;fill-rule:nonzero;fill:rgb(47.058824%,21.568627%,25.490196%);fill-opacity:1;"
            d="M 5.609375 3.714844 L 6.105469 4.867188 "/>
      <path style=" stroke:none;fill-rule:nonzero;fill:rgb(47.058824%,21.568627%,25.490196%);fill-opacity:1;"
            d="M 5.957031 4.0625 L 6.289062 4.144531 "/>
      <path style=" stroke:none;fill-rule:nonzero;fill:rgb(47.058824%,21.568627%,25.490196%);fill-opacity:1;"
            d="M 6.089844 3.867188 L 5.621094 3.847656 "/>
   </g>
</svg>
