<?xml version="1.0" encoding="UTF-8"?>
<svg xmlns="http://www.w3.org/2000/svg" width="12px" height="12px" viewBox="0 0 12 12" version="1.1">
   <g id="surface1">
      <path style=" stroke:none;fill-rule:nonzero;fill:rgb(0%,0%,0%);fill-opacity:1;"
            d="M 6 0 C 3.320312 0 1.140625 2.179688 1.140625 4.859375 C 1.140625 5.964844 1.503906 7.007812 2.1875 7.871094 C 3.074219 8.988281 5.65625 11.648438 5.765625 11.761719 L 6 12 L 6.234375 11.761719 C 6.34375 11.648438 8.925781 8.988281 9.8125 7.871094 C 10.496094 7.007812 10.859375 5.964844 10.859375 4.859375 C 10.859375 2.179688 8.679688 0 6 0 Z M 9.300781 7.464844 C 8.589844 8.367188 6.667969 10.371094 6 11.066406 C 5.332031 10.371094 3.414062 8.367188 2.699219 7.464844 C 2.105469 6.71875 1.792969 5.816406 1.792969 4.859375 C 1.792969 2.539062 3.679688 0.652344 6 0.652344 C 8.320312 0.652344 10.207031 2.539062 10.207031 4.859375 C 10.207031 5.816406 9.894531 6.71875 9.300781 7.464844 Z M 9.300781 7.464844 "/>
      <path style=" stroke:none;fill-rule:nonzero;fill:rgb(0%,0%,0%);fill-opacity:1;"
            d="M 6 1.929688 C 4.414062 1.929688 3.125 3.21875 3.125 4.804688 C 3.125 6.390625 4.414062 7.683594 6 7.683594 C 7.585938 7.683594 8.875 6.390625 8.875 4.804688 C 8.875 3.21875 7.585938 1.929688 6 1.929688 Z M 6 7.03125 C 4.773438 7.03125 3.773438 6.03125 3.773438 4.804688 C 3.773438 3.578125 4.773438 2.578125 6 2.578125 C 7.226562 2.578125 8.226562 3.578125 8.226562 4.804688 C 8.226562 6.03125 7.226562 7.03125 6 7.03125 Z M 6 7.03125 "/>
   </g>
</svg>
