<?xml version="1.0" encoding="UTF-8"?>
<svg xmlns="http://www.w3.org/2000/svg" width="26px" height="16px" viewBox="0 0 26 16" version="1.1">
   <g id="surface1">
      <path style="fill:none;stroke-width:10;stroke-linecap:butt;stroke-linejoin:miter;stroke:rgb(0%,0%,0%);stroke-opacity:1;stroke-miterlimit:4;"
            d="M 15 5 L 193 5 C 198.53125 5 203 9.46875 203 15 L 203 113 C 203 118.53125 198.53125 123 193 123 L 15 123 C 9.46875 123 5 118.53125 5 113 L 5 15 C 5 9.46875 9.46875 5 15 5 Z M 15 5 "
            transform="matrix(0.125,0,0,0.125,0,0)"/>
      <path style=" stroke:none;fill-rule:nonzero;fill:rgb(0%,0%,0%);fill-opacity:1;"
            d="M 3.75 12.25 L 3.75 3.75 L 6.25 3.75 L 8.75 6.875 L 11.25 3.75 L 13.75 3.75 L 13.75 12.25 L 11.25 12.25 L 11.25 7.375 L 8.75 10.5 L 6.25 7.375 L 6.25 12.25 Z M 19.375 12.25 L 15.625 8.125 L 18.125 8.125 L 18.125 3.75 L 20.625 3.75 L 20.625 8.125 L 23.125 8.125 Z M 19.375 12.25 "/>
   </g>
</svg>
